G04 Layer_Physical_Order=2*
G04 Layer_Color=16711680*
%FSLAX25Y25*%
%MOIN*%
G70*
G01*
G75*
%ADD33C,0.02000*%
%ADD34C,0.01200*%
%ADD36C,0.01500*%
%ADD37C,0.01600*%
%ADD40R,0.06000X0.06000*%
%ADD41C,0.02000*%
%ADD42C,0.05512*%
%ADD43R,0.05906X0.05906*%
%ADD44C,0.05906*%
%ADD45R,0.08858X0.08858*%
%ADD46C,0.08858*%
%ADD47C,0.02600*%
%ADD48O,0.06299X0.03543*%
%ADD49C,0.07000*%
%ADD50C,0.06000*%
%ADD51C,0.12598*%
%ADD52R,0.05906X0.05906*%
%ADD53C,0.05000*%
%ADD54R,0.05000X0.05000*%
%ADD55C,0.08661*%
%ADD56R,0.06000X0.05000*%
D33*
X41646Y46500D02*
X48000D01*
X52000Y50500D01*
X195500Y69000D02*
X202000D01*
X147500D02*
X195500D01*
X143500Y73000D02*
X147500Y69000D01*
X202000D02*
X204500Y66500D01*
Y14500D02*
Y66500D01*
X373000Y132000D02*
X382500D01*
X360500D02*
X373000D01*
Y64000D02*
Y79000D01*
Y53000D02*
Y64000D01*
X364500Y40000D02*
X366000Y41500D01*
Y42000D01*
X367000Y41000D01*
Y30500D02*
Y41000D01*
X364000Y27500D02*
X367000Y30500D01*
X340000Y19500D02*
X356000D01*
X325000D02*
X339500D01*
X364000Y27500D02*
Y31500D01*
X356000Y19500D02*
X364000Y27500D01*
X371000Y19500D02*
Y51000D01*
X299500Y19500D02*
X325000D01*
X290000Y10000D02*
X299500Y19500D01*
X345000Y132000D02*
X350000D01*
X342000Y135000D02*
X345000Y132000D01*
X348000Y130000D02*
X350000Y132000D01*
X360500D01*
X387500Y127000D02*
Y162000D01*
Y93500D02*
Y127000D01*
X357000Y135500D02*
X360500Y132000D01*
X382500D02*
X387500Y127000D01*
X380551Y86551D02*
X387500Y93500D01*
X381000Y168500D02*
X387500Y162000D01*
X365200Y13700D02*
X371000Y19500D01*
X365200Y5700D02*
Y13700D01*
X362500Y3000D02*
X365200Y5700D01*
X297000Y3000D02*
X362500D01*
X290000Y10000D02*
X297000Y3000D01*
X371000Y51000D02*
X373000Y53000D01*
Y79000D02*
X380551Y86551D01*
Y99803D01*
X280000Y10000D02*
X290000D01*
X52000Y50500D02*
Y66500D01*
X218500Y194500D02*
X224000Y200000D01*
X209000Y180500D02*
X214500D01*
X274500Y4500D02*
X280000Y10000D01*
X204500Y14500D02*
X214500Y4500D01*
X274500D01*
X282374Y162657D02*
X288216Y168500D01*
X381000D01*
X221000Y74500D02*
X222000Y73500D01*
X221000Y117500D02*
X221500D01*
X226000Y113000D01*
X221000Y74500D02*
Y117500D01*
X162000Y196000D02*
X163500Y194500D01*
X218500D01*
X140500Y77000D02*
Y188500D01*
X221000Y131000D02*
X226000Y126000D01*
X221000Y117500D02*
Y131000D01*
Y142500D01*
X220000Y143500D02*
X221000Y142500D01*
X219500Y144000D02*
Y158000D01*
X214500Y180500D02*
X219500Y175500D01*
Y158000D02*
Y175500D01*
D34*
X229000Y71500D02*
X235000Y77500D01*
Y108500D01*
X238500Y77000D02*
Y108000D01*
X232500Y71000D02*
X238500Y77000D01*
X202000Y69000D02*
Y69756D01*
X199756Y72000D02*
X202000Y69756D01*
X193000Y71500D02*
X195500Y69000D01*
X367400Y137600D02*
X373000Y132000D01*
X367400Y137600D02*
Y140494D01*
X365500Y142394D02*
X367400Y140494D01*
X365500Y142394D02*
Y149000D01*
X354500Y97500D02*
X373000Y79000D01*
X349787Y97500D02*
X354500D01*
X323213D02*
X349787D01*
X367000Y66500D02*
X370500D01*
X358374D02*
X367000D01*
X370500D02*
X373000Y64000D01*
X325000Y19500D02*
X329000Y23500D01*
Y29500D01*
X348000Y139500D02*
X365000D01*
X310500Y175500D02*
X314500Y171500D01*
X310500Y175500D02*
Y182000D01*
X301500Y191000D02*
X310500Y182000D01*
X273000Y191000D02*
X301500D01*
X264000Y200000D02*
X273000Y191000D01*
X274000Y200000D02*
X280000Y194000D01*
X303500D01*
X313000Y184500D01*
Y177500D02*
Y184500D01*
X266626Y162657D02*
Y168874D01*
X265000Y170500D02*
X266626Y168874D01*
X236000Y170500D02*
X265000D01*
X266626Y178626D02*
Y182343D01*
X274500Y162657D02*
Y169000D01*
X271000Y172500D02*
X274500Y169000D01*
Y178000D02*
Y182343D01*
X271000Y174500D02*
X274500Y178000D01*
X17750Y106250D02*
X21500Y102500D01*
Y77000D02*
Y102500D01*
Y77000D02*
X26811Y71689D01*
X35842D01*
X33672Y62000D02*
X48000D01*
X23983Y71689D02*
X33672Y62000D01*
X16158Y71689D02*
X23983D01*
X14500Y109500D02*
X17750Y106250D01*
X14500Y109500D02*
Y115500D01*
Y121500D01*
X62000Y77000D02*
Y84000D01*
X61500Y88000D02*
X72000Y77500D01*
Y80500D02*
X79500D01*
X62500Y90000D02*
X72000Y80500D01*
X36406Y88000D02*
X61500D01*
X42500Y90000D02*
X62500D01*
X79500Y80500D02*
X82000Y78000D01*
X72000Y76000D02*
Y77500D01*
X82000Y76000D02*
Y78000D01*
X60000Y86000D02*
X62000Y84000D01*
X42279Y86000D02*
X60000D01*
X57000Y84000D02*
X59000Y82000D01*
X44000Y84000D02*
X57000D01*
X42500Y82500D02*
X44000Y84000D01*
X37189Y95311D02*
X42500Y90000D01*
Y78347D02*
Y82500D01*
X35842Y95311D02*
X37189D01*
X35842Y87437D02*
X36406Y88000D01*
X35842Y79563D02*
X42279Y86000D01*
X35842Y71689D02*
X42500Y78347D01*
X150400Y183600D02*
X157651D01*
X151900Y185600D02*
X156823D01*
X154006Y187600D02*
X155994D01*
X144000Y190000D02*
X150400Y183600D01*
X147500Y190000D02*
X151900Y185600D01*
X151500Y190106D02*
X154006Y187600D01*
X151500Y190000D02*
Y190106D01*
X314500Y171500D02*
X361000D01*
X357500Y166000D02*
X366000Y157500D01*
X239500Y176500D02*
X264500D01*
X266626Y178626D01*
X238500Y174500D02*
X271000D01*
X237000Y172500D02*
X271000D01*
X219500Y158000D02*
X224500Y153000D01*
X213000Y156000D02*
X215500Y153500D01*
X213000Y168500D02*
X215500Y166000D01*
X215000Y160000D02*
X215500D01*
X213000Y162000D02*
X215000Y160000D01*
X213000Y156000D02*
Y162000D01*
Y168500D01*
Y174000D01*
X215000Y172000D02*
X215500D01*
X213000Y174000D02*
X215000Y172000D01*
X211500Y175500D02*
X213000Y174000D01*
X140500Y188500D02*
X153500Y175500D01*
X140500Y188500D02*
Y192500D01*
X143000Y195000D01*
X160500D01*
X194000Y144000D02*
X197000Y147000D01*
X216500D01*
X224500Y153000D02*
X293000D01*
X306000Y166000D02*
X357500D01*
X302500Y163500D02*
X303000Y163000D01*
X297000Y163500D02*
X302500D01*
X293000Y153000D02*
X303000Y163000D01*
X306000Y166000D01*
X201500Y108500D02*
X206000Y113000D01*
X209500Y106500D02*
X216000Y113000D01*
X160000Y104828D02*
X163672Y108500D01*
X201500D01*
X164500Y106500D02*
X209500D01*
X169000Y72500D02*
X172000Y75500D01*
X161000Y72500D02*
X169000D01*
X159600Y73900D02*
X161000Y72500D01*
X159600Y73900D02*
Y76894D01*
X160000Y77294D01*
Y104828D01*
X162000Y75500D02*
Y104000D01*
X164500Y106500D01*
X214500Y103500D02*
Y107500D01*
X212500Y101500D02*
X214500Y103500D01*
X190000Y119000D02*
X196000Y113000D01*
X190000Y119000D02*
Y126500D01*
X221500Y185000D02*
X236000Y170500D01*
X157651Y183600D02*
X159051Y185000D01*
X222500Y187000D02*
X237000Y172500D01*
X156823Y185600D02*
X158222Y187000D01*
X224000Y189000D02*
X238500Y174500D01*
X155994Y187600D02*
X157394Y189000D01*
X225000Y191000D02*
X239500Y176500D01*
X155000Y190000D02*
X156000Y191000D01*
X225000D01*
X157394Y189000D02*
X224000D01*
X158222Y187000D02*
X222500D01*
X159051Y185000D02*
X221500D01*
X179000Y137500D02*
X190000Y126500D01*
X179000Y137500D02*
Y170000D01*
X173500Y175500D02*
X179000Y170000D01*
X153500Y175500D02*
X173500D01*
X211500D01*
X190000Y126500D02*
X190500Y126000D01*
X152000Y76000D02*
Y85000D01*
X190500Y126000D02*
X196000D01*
X216500Y147000D02*
X220000Y143500D01*
D36*
X340500Y61000D02*
X341000D01*
X338500Y67500D02*
X341000Y65000D01*
X337000Y64500D02*
X340500Y61000D01*
X332500Y64647D02*
X335353Y67500D01*
X338500D01*
D37*
X350000Y40000D02*
X364500D01*
X349000Y41000D02*
X350000Y40000D01*
X339500Y19500D02*
X340000D01*
X345000Y24500D01*
Y30000D01*
D40*
X320000Y10000D02*
D03*
X284000Y200000D02*
D03*
X370000D02*
D03*
X300000Y10000D02*
D03*
D41*
X235000Y108500D02*
D03*
X238500Y108000D02*
D03*
X143500Y73000D02*
D03*
X140500D02*
D03*
Y75000D02*
D03*
X143500D02*
D03*
X366000Y157500D02*
D03*
X365500Y149000D02*
D03*
X348000Y139500D02*
D03*
X342000Y135000D02*
D03*
X361000Y171500D02*
D03*
X313000Y177500D02*
D03*
X14500Y121500D02*
D03*
Y115500D02*
D03*
X17750Y106250D02*
D03*
X48000Y62000D02*
D03*
X59000Y82000D02*
D03*
X82000Y76000D02*
D03*
X72000D02*
D03*
X62000Y77000D02*
D03*
X215500Y153500D02*
D03*
Y160000D02*
D03*
Y166000D02*
D03*
Y172000D02*
D03*
X194000Y144000D02*
D03*
X349787Y97500D02*
D03*
X323213D02*
D03*
X152000Y85000D02*
D03*
Y76000D02*
D03*
X229000Y71500D02*
D03*
X232500Y71000D02*
D03*
X199756Y72000D02*
D03*
X193000Y71500D02*
D03*
X329000Y29500D02*
D03*
X365000Y139500D02*
D03*
X357000Y135500D02*
D03*
X348000Y130000D02*
D03*
X358374Y66500D02*
D03*
X367000D02*
D03*
X366000Y42000D02*
D03*
X349000Y41000D02*
D03*
X364500Y40000D02*
D03*
X364000Y31500D02*
D03*
X345000Y30000D02*
D03*
X341000Y65000D02*
D03*
Y61000D02*
D03*
X332500Y64647D02*
D03*
X337000Y64500D02*
D03*
X155000Y190000D02*
D03*
X151500D02*
D03*
X147500D02*
D03*
X144000D02*
D03*
X163500Y197000D02*
D03*
X160500D02*
D03*
Y195000D02*
D03*
X163500D02*
D03*
X297000Y163500D02*
D03*
X212500Y101500D02*
D03*
X162000Y75500D02*
D03*
X172000D02*
D03*
X214500Y107500D02*
D03*
D42*
X42535Y103185D02*
D03*
X250878Y189035D02*
D03*
D43*
X35842Y95311D02*
D03*
D44*
Y87437D02*
D03*
Y79563D02*
D03*
Y71689D02*
D03*
X16158D02*
D03*
Y79563D02*
D03*
Y87437D02*
D03*
Y95311D02*
D03*
X199000Y180500D02*
D03*
X266626Y182343D02*
D03*
X274500D02*
D03*
X282374D02*
D03*
X290248D02*
D03*
X258752Y162657D02*
D03*
X266626D02*
D03*
X274500D02*
D03*
X282374D02*
D03*
X290248D02*
D03*
D45*
X22500Y198500D02*
D03*
D46*
Y178500D02*
D03*
Y158500D02*
D03*
Y138500D02*
D03*
D47*
X52000Y66500D02*
D03*
X222000Y73500D02*
D03*
D48*
X382531Y49508D02*
D03*
Y75492D02*
D03*
D49*
X370551Y119803D02*
D03*
X380551D02*
D03*
X370551Y109803D02*
D03*
X380551D02*
D03*
X370551Y99803D02*
D03*
X380551D02*
D03*
D50*
X330000Y10000D02*
D03*
X340000D02*
D03*
X350000D02*
D03*
X360000D02*
D03*
X370000D02*
D03*
X274000Y200000D02*
D03*
X264000D02*
D03*
X254000D02*
D03*
X244000D02*
D03*
X234000D02*
D03*
X224000D02*
D03*
X214000D02*
D03*
X204000D02*
D03*
X194000D02*
D03*
X340000D02*
D03*
X330000D02*
D03*
X320000D02*
D03*
X310000D02*
D03*
X300000D02*
D03*
X360000D02*
D03*
X350000D02*
D03*
X270000Y10000D02*
D03*
X260000D02*
D03*
X250000D02*
D03*
X240000D02*
D03*
X230000D02*
D03*
X290000D02*
D03*
X280000D02*
D03*
X109646Y46681D02*
D03*
X100000D02*
D03*
X168000D02*
D03*
X177646D02*
D03*
X41646D02*
D03*
X32000D02*
D03*
D51*
X380000Y30000D02*
D03*
D52*
X209000Y180500D02*
D03*
X258752Y182343D02*
D03*
D53*
X196000Y113000D02*
D03*
X206000D02*
D03*
X216000D02*
D03*
Y126000D02*
D03*
X206000D02*
D03*
X196000D02*
D03*
D54*
X226000Y113000D02*
D03*
Y126000D02*
D03*
D55*
X120000Y26681D02*
D03*
X80000D02*
D03*
X148000D02*
D03*
X188000D02*
D03*
X52000D02*
D03*
X12000D02*
D03*
D56*
X142000Y74000D02*
D03*
X162000Y196000D02*
D03*
M02*
