M48
;Layer_Color=9474304
;FILE_FORMAT=2:5
INCH,LZ
;TYPE=PLATED
T1F00S00C0.01200
T2F00S00C0.01800
T4F00S00C0.03000
T5F00S00C0.03150
T6F00S00C0.03543
T7F00S00C0.03937
T8F00S00C0.05906
T9F00S00C0.08661
T10F00S00C0.09055
T11F00S00C0.12598
;TYPE=NON_PLATED
T12F00S00C0.05512
%
T01
X0048Y0062
X0062Y0077
X0059Y0082
X0072Y0076
X0082
X001775Y010625
X00145Y01155
Y01215
X01405Y0075
Y0073
X01435
Y0075
X0152Y0076
Y0085
X0162Y00755
X0172
X0193Y00715
X0199756Y0072
X0229Y00715
X02325Y0071
X0235Y01085
X02385Y0108
X02145Y01075
X02125Y01015
X02155Y01535
Y016
Y0166
Y0172
X0194Y0144
X0297Y01635
X0313Y01775
X0361Y01715
X0366Y01575
X03655Y0149
X0365Y01395
X0357Y01355
X0348Y01395
Y013
X0342Y0135
X0349787Y00975
X0323213
X03325Y0064647
X0337Y00645
X0341Y0065
Y0061
X0358374Y00665
X0367
X0366Y0042
X03645Y004
X0364Y00315
X0345Y003
X0349Y0041
X0329Y00295
X01635Y0195
Y0197
X01605
Y0195
X0155Y019
X01515
X01475
X0144
T02
X0052Y00665
X0222Y00735
T04
X027Y001
X028
X029
X03
X032
X033
X034
X035
X036
X037
X026
X025
X024
X023
X0274Y02
X0284
X03
X031
X032
X033
X034
X035
X036
X037
X0264
X0254
X0244
X0234
X0224
X0214
X0204
X0194
T05
X0016158Y0071689
Y0079563
Y0087437
Y0095311
X0035842
Y0087437
Y0079563
Y0071689
X0258752Y0162657
X0266626
Y0182343
X0258752
X02745
X0282374
X0290248
Y0162657
X0282374
X02745
T06
X0199Y01805
X0209
X0370551Y0119803
X0380551
Y0109803
X0370551
Y0099803
X0380551
T07
X0032Y0046681
X0041646
X01
X0109646
X0168
X0177646
X0196Y0113
X0206
X0216
X0226
Y0126
X0216
X0206
X0196
T08
X00225Y01385
Y01585
Y01785
Y01985
T09
X0148Y0026681
X008
X0012
T10
X012Y0026681
X0188
X0052
T11
X038Y003
T12
X0042535Y0103185
X0250878Y0189035
M30
