G04 Layer_Color=255*
%FSLAX25Y25*%
%MOIN*%
G70*
G01*
G75*
%ADD40R,0.06000X0.06000*%
%ADD41C,0.02000*%
%ADD42C,0.05512*%
%ADD43R,0.05906X0.05906*%
%ADD44C,0.05906*%
%ADD45R,0.08858X0.08858*%
%ADD46C,0.08858*%
%ADD47C,0.02600*%
%ADD48O,0.06299X0.03543*%
%ADD49C,0.07000*%
%ADD50C,0.06000*%
%ADD51C,0.12598*%
%ADD52R,0.05906X0.05906*%
%ADD53C,0.05000*%
%ADD54R,0.05000X0.05000*%
%ADD55C,0.08661*%
D40*
X320000Y10000D02*
D03*
X284000Y200000D02*
D03*
X370000D02*
D03*
X300000Y10000D02*
D03*
D41*
X235000Y108500D02*
D03*
X238500Y108000D02*
D03*
X143500Y73000D02*
D03*
X140500D02*
D03*
Y75000D02*
D03*
X143500D02*
D03*
X366000Y157500D02*
D03*
X365500Y149000D02*
D03*
X348000Y139500D02*
D03*
X342000Y135000D02*
D03*
X361000Y171500D02*
D03*
X313000Y177500D02*
D03*
X14500Y121500D02*
D03*
Y115500D02*
D03*
X17750Y106250D02*
D03*
X48000Y62000D02*
D03*
X59000Y82000D02*
D03*
X82000Y76000D02*
D03*
X72000D02*
D03*
X62000Y77000D02*
D03*
X215500Y153500D02*
D03*
Y160000D02*
D03*
Y166000D02*
D03*
Y172000D02*
D03*
X194000Y144000D02*
D03*
X349787Y97500D02*
D03*
X323213D02*
D03*
X152000Y85000D02*
D03*
Y76000D02*
D03*
X229000Y71500D02*
D03*
X232500Y71000D02*
D03*
X199756Y72000D02*
D03*
X193000Y71500D02*
D03*
X329000Y29500D02*
D03*
X365000Y139500D02*
D03*
X357000Y135500D02*
D03*
X348000Y130000D02*
D03*
X358374Y66500D02*
D03*
X367000D02*
D03*
X366000Y42000D02*
D03*
X349000Y41000D02*
D03*
X364500Y40000D02*
D03*
X364000Y31500D02*
D03*
X345000Y30000D02*
D03*
X341000Y65000D02*
D03*
Y61000D02*
D03*
X332500Y64647D02*
D03*
X337000Y64500D02*
D03*
X155000Y190000D02*
D03*
X151500D02*
D03*
X147500D02*
D03*
X144000D02*
D03*
X163500Y197000D02*
D03*
X160500D02*
D03*
Y195000D02*
D03*
X163500D02*
D03*
X297000Y163500D02*
D03*
X212500Y101500D02*
D03*
X162000Y75500D02*
D03*
X172000D02*
D03*
X214500Y107500D02*
D03*
D42*
X42535Y103185D02*
D03*
X250878Y189035D02*
D03*
D43*
X35842Y95311D02*
D03*
D44*
Y87437D02*
D03*
Y79563D02*
D03*
Y71689D02*
D03*
X16158D02*
D03*
Y79563D02*
D03*
Y87437D02*
D03*
Y95311D02*
D03*
X199000Y180500D02*
D03*
X266626Y182343D02*
D03*
X274500D02*
D03*
X282374D02*
D03*
X290248D02*
D03*
X258752Y162657D02*
D03*
X266626D02*
D03*
X274500D02*
D03*
X282374D02*
D03*
X290248D02*
D03*
D45*
X22500Y198500D02*
D03*
D46*
Y178500D02*
D03*
Y158500D02*
D03*
Y138500D02*
D03*
D47*
X52000Y66500D02*
D03*
X222000Y73500D02*
D03*
D48*
X382531Y49508D02*
D03*
Y75492D02*
D03*
D49*
X370551Y119803D02*
D03*
X380551D02*
D03*
X370551Y109803D02*
D03*
X380551D02*
D03*
X370551Y99803D02*
D03*
X380551D02*
D03*
D50*
X330000Y10000D02*
D03*
X340000D02*
D03*
X350000D02*
D03*
X360000D02*
D03*
X370000D02*
D03*
X274000Y200000D02*
D03*
X264000D02*
D03*
X254000D02*
D03*
X244000D02*
D03*
X234000D02*
D03*
X224000D02*
D03*
X214000D02*
D03*
X204000D02*
D03*
X194000D02*
D03*
X340000D02*
D03*
X330000D02*
D03*
X320000D02*
D03*
X310000D02*
D03*
X300000D02*
D03*
X360000D02*
D03*
X350000D02*
D03*
X270000Y10000D02*
D03*
X260000D02*
D03*
X250000D02*
D03*
X240000D02*
D03*
X230000D02*
D03*
X290000D02*
D03*
X280000D02*
D03*
X109646Y46681D02*
D03*
X100000D02*
D03*
X168000D02*
D03*
X177646D02*
D03*
X41646D02*
D03*
X32000D02*
D03*
D51*
X380000Y30000D02*
D03*
D52*
X209000Y180500D02*
D03*
X258752Y182343D02*
D03*
D53*
X196000Y113000D02*
D03*
X206000D02*
D03*
X216000D02*
D03*
Y126000D02*
D03*
X206000D02*
D03*
X196000D02*
D03*
D54*
X226000Y113000D02*
D03*
Y126000D02*
D03*
D55*
X120000Y26681D02*
D03*
X80000D02*
D03*
X148000D02*
D03*
X188000D02*
D03*
X52000D02*
D03*
X12000D02*
D03*
M02*
