G04 Layer_Physical_Order=1*
G04 Layer_Color=255*
%FSLAX25Y25*%
%MOIN*%
G70*
G01*
G75*
%ADD10R,0.06000X0.09000*%
%ADD11R,0.09000X0.06000*%
G04:AMPARAMS|DCode=12|XSize=39.37mil|YSize=35.43mil|CornerRadius=4.43mil|HoleSize=0mil|Usage=FLASHONLY|Rotation=270.000|XOffset=0mil|YOffset=0mil|HoleType=Round|Shape=RoundedRectangle|*
%AMROUNDEDRECTD12*
21,1,0.03937,0.02658,0,0,270.0*
21,1,0.03051,0.03543,0,0,270.0*
1,1,0.00886,-0.01329,-0.01526*
1,1,0.00886,-0.01329,0.01526*
1,1,0.00886,0.01329,0.01526*
1,1,0.00886,0.01329,-0.01526*
%
%ADD12ROUNDEDRECTD12*%
%ADD13C,0.03937*%
G04:AMPARAMS|DCode=14|XSize=55.12mil|YSize=39.37mil|CornerRadius=4.92mil|HoleSize=0mil|Usage=FLASHONLY|Rotation=0.000|XOffset=0mil|YOffset=0mil|HoleType=Round|Shape=RoundedRectangle|*
%AMROUNDEDRECTD14*
21,1,0.05512,0.02953,0,0,0.0*
21,1,0.04528,0.03937,0,0,0.0*
1,1,0.00984,0.02264,-0.01476*
1,1,0.00984,-0.02264,-0.01476*
1,1,0.00984,-0.02264,0.01476*
1,1,0.00984,0.02264,0.01476*
%
%ADD14ROUNDEDRECTD14*%
%ADD15R,0.10827X0.05512*%
%ADD16R,0.05512X0.06299*%
%ADD17R,0.06102X0.07480*%
%ADD18R,0.05315X0.01575*%
%ADD19R,0.03000X0.04000*%
G04:AMPARAMS|DCode=20|XSize=39.37mil|YSize=35.43mil|CornerRadius=4.43mil|HoleSize=0mil|Usage=FLASHONLY|Rotation=0.000|XOffset=0mil|YOffset=0mil|HoleType=Round|Shape=RoundedRectangle|*
%AMROUNDEDRECTD20*
21,1,0.03937,0.02658,0,0,0.0*
21,1,0.03051,0.03543,0,0,0.0*
1,1,0.00886,0.01526,-0.01329*
1,1,0.00886,-0.01526,-0.01329*
1,1,0.00886,-0.01526,0.01329*
1,1,0.00886,0.01526,0.01329*
%
%ADD20ROUNDEDRECTD20*%
G04:AMPARAMS|DCode=21|XSize=23.62mil|YSize=23.62mil|CornerRadius=2.36mil|HoleSize=0mil|Usage=FLASHONLY|Rotation=90.000|XOffset=0mil|YOffset=0mil|HoleType=Round|Shape=RoundedRectangle|*
%AMROUNDEDRECTD21*
21,1,0.02362,0.01890,0,0,90.0*
21,1,0.01890,0.02362,0,0,90.0*
1,1,0.00472,0.00945,0.00945*
1,1,0.00472,0.00945,-0.00945*
1,1,0.00472,-0.00945,-0.00945*
1,1,0.00472,-0.00945,0.00945*
%
%ADD21ROUNDEDRECTD21*%
%ADD22R,0.03347X0.02362*%
%ADD23R,0.03347X0.03937*%
G04:AMPARAMS|DCode=24|XSize=55.12mil|YSize=39.37mil|CornerRadius=4.92mil|HoleSize=0mil|Usage=FLASHONLY|Rotation=90.000|XOffset=0mil|YOffset=0mil|HoleType=Round|Shape=RoundedRectangle|*
%AMROUNDEDRECTD24*
21,1,0.05512,0.02953,0,0,90.0*
21,1,0.04528,0.03937,0,0,90.0*
1,1,0.00984,0.01476,0.02264*
1,1,0.00984,0.01476,-0.02264*
1,1,0.00984,-0.01476,-0.02264*
1,1,0.00984,-0.01476,0.02264*
%
%ADD24ROUNDEDRECTD24*%
%ADD25R,0.05906X0.03150*%
%ADD26R,0.07480X0.05512*%
%ADD27R,0.05512X0.07087*%
%ADD28R,0.03000X0.03200*%
%ADD29R,0.04724X0.09843*%
%ADD30R,0.03150X0.03150*%
G04:AMPARAMS|DCode=31|XSize=23.62mil|YSize=39.37mil|CornerRadius=2.95mil|HoleSize=0mil|Usage=FLASHONLY|Rotation=90.000|XOffset=0mil|YOffset=0mil|HoleType=Round|Shape=RoundedRectangle|*
%AMROUNDEDRECTD31*
21,1,0.02362,0.03347,0,0,90.0*
21,1,0.01772,0.03937,0,0,90.0*
1,1,0.00591,0.01673,0.00886*
1,1,0.00591,0.01673,-0.00886*
1,1,0.00591,-0.01673,-0.00886*
1,1,0.00591,-0.01673,0.00886*
%
%ADD31ROUNDEDRECTD31*%
G04:AMPARAMS|DCode=32|XSize=23.62mil|YSize=23.62mil|CornerRadius=2.36mil|HoleSize=0mil|Usage=FLASHONLY|Rotation=0.000|XOffset=0mil|YOffset=0mil|HoleType=Round|Shape=RoundedRectangle|*
%AMROUNDEDRECTD32*
21,1,0.02362,0.01890,0,0,0.0*
21,1,0.01890,0.02362,0,0,0.0*
1,1,0.00472,0.00945,-0.00945*
1,1,0.00472,-0.00945,-0.00945*
1,1,0.00472,-0.00945,0.00945*
1,1,0.00472,0.00945,0.00945*
%
%ADD32ROUNDEDRECTD32*%
%ADD33C,0.02000*%
%ADD34C,0.01200*%
%ADD35C,0.01800*%
%ADD36C,0.01500*%
%ADD37C,0.01600*%
%ADD38C,0.01000*%
%ADD39R,0.06000X0.04000*%
%ADD40R,0.06000X0.06000*%
%ADD41C,0.02000*%
%ADD42C,0.05512*%
%ADD43R,0.05906X0.05906*%
%ADD44C,0.05906*%
%ADD45R,0.08858X0.08858*%
%ADD46C,0.08858*%
%ADD47C,0.02600*%
%ADD48O,0.06299X0.03543*%
%ADD49C,0.07000*%
%ADD50C,0.06000*%
%ADD51C,0.12598*%
%ADD52R,0.05906X0.05906*%
%ADD53C,0.05000*%
%ADD54R,0.05000X0.05000*%
%ADD55C,0.08661*%
D10*
X122000Y199500D02*
D03*
X132000D02*
D03*
X142000D02*
D03*
X152000D02*
D03*
X162000D02*
D03*
X172000D02*
D03*
Y69500D02*
D03*
X162000D02*
D03*
X152000D02*
D03*
X142000D02*
D03*
X132000D02*
D03*
X122000D02*
D03*
X102000D02*
D03*
X92000D02*
D03*
X82000D02*
D03*
X72000D02*
D03*
X62000D02*
D03*
X102000Y199500D02*
D03*
X92000D02*
D03*
X82000D02*
D03*
D11*
X182000Y189500D02*
D03*
Y179500D02*
D03*
Y169500D02*
D03*
Y159500D02*
D03*
Y149500D02*
D03*
Y139500D02*
D03*
Y129500D02*
D03*
Y119500D02*
D03*
Y109500D02*
D03*
Y99500D02*
D03*
X52000Y189500D02*
D03*
Y169500D02*
D03*
Y149500D02*
D03*
Y129500D02*
D03*
Y109500D02*
D03*
Y99500D02*
D03*
Y89500D02*
D03*
Y79500D02*
D03*
X182000Y89500D02*
D03*
Y79500D02*
D03*
D12*
X216653Y34500D02*
D03*
X223346D02*
D03*
X211807Y68500D02*
D03*
X218500D02*
D03*
X346193Y43500D02*
D03*
X339500D02*
D03*
X358374Y70976D02*
D03*
X365067D02*
D03*
X353346Y65500D02*
D03*
X327000Y20500D02*
D03*
X333693D02*
D03*
X346654Y65500D02*
D03*
D13*
X228500Y143500D02*
D03*
X205000Y39000D02*
D03*
Y53500D02*
D03*
D14*
X204043Y75543D02*
D03*
Y68457D02*
D03*
D15*
X323213Y76126D02*
D03*
Y91874D02*
D03*
X349787Y76126D02*
D03*
Y91874D02*
D03*
X349787Y118874D02*
D03*
Y103126D02*
D03*
X323213Y118874D02*
D03*
Y103126D02*
D03*
D16*
X372886Y49902D02*
D03*
Y75098D02*
D03*
D17*
X382531Y67225D02*
D03*
Y57775D02*
D03*
D18*
X372000Y67618D02*
D03*
Y65059D02*
D03*
Y57382D02*
D03*
Y59941D02*
D03*
Y62500D02*
D03*
D19*
X352740Y38268D02*
D03*
X345260D02*
D03*
X349000Y30000D02*
D03*
D20*
X340000Y38193D02*
D03*
Y31500D02*
D03*
X360000Y38193D02*
D03*
Y31500D02*
D03*
X347000Y53307D02*
D03*
X197000Y68654D02*
D03*
Y75346D02*
D03*
X366000Y53000D02*
D03*
Y46307D02*
D03*
X347000Y60000D02*
D03*
D21*
X364189Y75976D02*
D03*
X360252D02*
D03*
X196531Y172000D02*
D03*
X200468D02*
D03*
X32937Y109500D02*
D03*
X29000D02*
D03*
X32969Y115500D02*
D03*
X29032D02*
D03*
X32969Y121500D02*
D03*
X29032D02*
D03*
X196531Y166000D02*
D03*
X200468D02*
D03*
X196531Y160000D02*
D03*
X200468D02*
D03*
X196531Y153500D02*
D03*
X200468D02*
D03*
X200437Y147500D02*
D03*
X196500D02*
D03*
X360968Y132000D02*
D03*
X357031D02*
D03*
X351969Y127000D02*
D03*
X348031D02*
D03*
X366500Y132000D02*
D03*
X370437D02*
D03*
X357063Y127000D02*
D03*
X361000D02*
D03*
D22*
X352465Y59740D02*
D03*
Y52260D02*
D03*
X360535Y59740D02*
D03*
D23*
Y53047D02*
D03*
D24*
X360043Y45000D02*
D03*
X352957D02*
D03*
D25*
X370075Y170830D02*
D03*
X368500Y166500D02*
D03*
X370075Y162169D02*
D03*
X370862Y157838D02*
D03*
X370075Y153507D02*
D03*
X370862Y149177D02*
D03*
X370075Y144846D02*
D03*
Y140515D02*
D03*
D26*
X385232Y189177D02*
D03*
X380705Y137405D02*
D03*
D27*
X329524Y166106D02*
D03*
Y143704D02*
D03*
D28*
X17750Y109500D02*
D03*
X23250D02*
D03*
X17750Y115500D02*
D03*
X23250D02*
D03*
X17750Y121500D02*
D03*
X23250D02*
D03*
X210750Y166000D02*
D03*
X205250D02*
D03*
X210750Y160000D02*
D03*
X205250D02*
D03*
X210750Y172000D02*
D03*
X205250D02*
D03*
X210750Y153500D02*
D03*
X205250D02*
D03*
X210750Y147500D02*
D03*
X205250D02*
D03*
D29*
X297158Y47827D02*
D03*
X316843D02*
D03*
X307000D02*
D03*
Y26173D02*
D03*
X316843D02*
D03*
X297158D02*
D03*
D30*
X327350Y26000D02*
D03*
X333650D02*
D03*
D31*
X220028Y40760D02*
D03*
Y48240D02*
D03*
X210972Y44500D02*
D03*
X220028Y54760D02*
D03*
Y62240D02*
D03*
X210972Y58500D02*
D03*
D32*
X225500Y48000D02*
D03*
Y44063D02*
D03*
Y62468D02*
D03*
Y58531D02*
D03*
X205500Y58563D02*
D03*
Y62500D02*
D03*
Y44532D02*
D03*
Y48469D02*
D03*
X342000Y127532D02*
D03*
Y131468D02*
D03*
X337000Y127500D02*
D03*
Y131437D02*
D03*
D33*
X102965Y40000D02*
X170965D01*
X48327D02*
X102965D01*
X109646Y46681D01*
X170965Y40000D02*
X177646Y46681D01*
X41646D02*
X48327Y40000D01*
X307000Y47827D02*
Y54000D01*
X302500Y58500D02*
X307000Y54000D01*
X287000Y58500D02*
X302500D01*
X307000Y26173D02*
Y47827D01*
X52000Y66500D02*
Y79500D01*
X41500Y46354D02*
X41646Y46500D01*
X42000Y129500D02*
X52000D01*
X33000Y138500D02*
X42000Y129500D01*
X22500Y138500D02*
X33000D01*
X212000Y76000D02*
X215000D01*
X204500D02*
X212000D01*
X204043Y75543D02*
X204500Y76000D01*
X269500D02*
X287000Y58500D01*
X260000Y10000D02*
X276173Y26173D01*
X297158D01*
X316843D02*
Y47827D01*
X297158Y26173D02*
Y47827D01*
X22500Y178500D02*
X33000D01*
X42000Y169500D01*
X52000D01*
X22500Y158500D02*
X33500D01*
X42500Y149500D01*
X52000D01*
X22500Y198500D02*
X33500D01*
X42500Y189500D01*
X52000D01*
X225500Y73500D02*
X228000Y76000D01*
X222000Y73500D02*
X225500D01*
X215000Y76000D02*
X228000D01*
X269500D01*
D34*
X168000Y46681D02*
Y54000D01*
X165500Y56500D02*
X168000Y54000D01*
X49500Y56500D02*
X165500D01*
X100000Y46681D02*
Y51500D01*
X97500Y54000D02*
X100000Y51500D01*
X48500Y54000D02*
X97500D01*
X361000Y161000D02*
Y171500D01*
X337000Y137000D02*
X361000Y161000D01*
X337000Y131437D02*
Y137000D01*
X235000Y108500D02*
Y109000D01*
X236500Y110500D01*
X238500Y108000D02*
X295000D01*
X323500Y136500D01*
X236500Y110500D02*
X294000D01*
X321500Y138000D01*
Y147500D01*
X323500Y136500D02*
Y146672D01*
X321500Y147500D02*
X325500Y151500D01*
X323500Y146672D02*
X326328Y149500D01*
X325500Y151500D02*
X339500D01*
X326328Y149500D02*
X340500D01*
X339500Y151500D02*
X346000Y158000D01*
X340500Y149500D02*
X348500Y157500D01*
X346000Y158000D02*
Y178828D01*
X348500Y157500D02*
Y178500D01*
X346000Y178828D02*
X360000Y192828D01*
Y200000D01*
X348500Y178500D02*
X370000Y200000D01*
X265600Y5600D02*
X270000Y10000D01*
X224400Y5600D02*
X265600D01*
X365500Y149000D02*
X365677Y149177D01*
X370862D01*
X366000Y157500D02*
X366338Y157838D01*
X370862D01*
X299500Y140000D02*
X313000Y153500D01*
Y177500D01*
X308000Y152186D02*
Y179843D01*
X298814Y143000D02*
X308000Y152186D01*
X229000Y143000D02*
X298814D01*
X306000Y153015D02*
Y180672D01*
X297985Y145000D02*
X306000Y153015D01*
X251500Y145000D02*
X297985D01*
X304000Y153843D02*
Y181500D01*
X297157Y147000D02*
X304000Y153843D01*
X253500Y147000D02*
X297157D01*
X302000Y154672D02*
Y183000D01*
X296328Y149000D02*
X302000Y154672D01*
X254328Y149000D02*
X296328D01*
X300000Y155500D02*
Y200000D01*
X295500Y151000D02*
X300000Y155500D01*
X255157Y151000D02*
X295500D01*
X316874Y118874D02*
X323213D01*
X349787Y97500D02*
Y103126D01*
Y91874D02*
Y97500D01*
X323213D02*
Y103126D01*
Y91874D02*
Y97500D01*
X342000Y131468D02*
Y135000D01*
X345500Y137000D02*
X348000Y139500D01*
X345500Y128722D02*
Y137000D01*
X345450Y128672D02*
X345500Y128722D01*
X345450Y128450D02*
Y128672D01*
X344531Y127532D02*
X345450Y128450D01*
X342000Y127532D02*
X344531D01*
X341968Y127500D02*
X342000Y127532D01*
X337000Y127500D02*
X341968D01*
X246000Y150500D02*
X251500Y145000D01*
X243500Y157000D02*
X253500Y147000D01*
X240328Y163000D02*
X254328Y149000D01*
X237157Y169000D02*
X255157Y151000D01*
X214750Y143500D02*
X228500D01*
X210750Y147500D02*
X214750Y143500D01*
X199000Y150500D02*
X246000D01*
X199265Y157000D02*
X243500D01*
X198500Y163000D02*
X240328D01*
X194532Y169000D02*
X237157D01*
X168000Y96500D02*
Y108500D01*
X156500Y85000D02*
X168000Y96500D01*
X152000Y85000D02*
X156500D01*
X175500Y100000D02*
Y102480D01*
X158000Y82500D02*
X175500Y100000D01*
X152000Y69500D02*
Y76000D01*
X135000Y82500D02*
X158000D01*
X122000Y69500D02*
X135000Y82500D01*
X335500Y192500D02*
Y204500D01*
X332500Y189500D02*
X335500Y192500D01*
X317657Y189500D02*
X332500D01*
X284000Y200000D02*
X291000Y207000D01*
X333000D01*
X335500Y204500D01*
X310000Y191000D02*
Y200000D01*
X302000Y183000D02*
X310000Y191000D01*
X304000Y181500D02*
X320000Y197500D01*
X306000Y180672D02*
X316828Y191500D01*
X308000Y179843D02*
X317657Y189500D01*
X316828Y191500D02*
X328000D01*
X330000Y193500D02*
Y200000D01*
X320000Y197500D02*
Y200000D01*
X352126Y76126D02*
X370551Y94551D01*
X358374Y66500D02*
Y70976D01*
Y74098D01*
X17750Y106250D02*
Y109500D01*
X14500Y115500D02*
X17750D01*
X14500Y121500D02*
X17750D01*
X22500Y93779D02*
Y97000D01*
X13500Y106000D02*
X22500Y97000D01*
X13500Y106000D02*
Y111000D01*
X16158Y95311D02*
Y100343D01*
X11500Y105000D02*
X16158Y100343D01*
X11500Y105000D02*
Y117000D01*
X15000Y112500D02*
X30432D01*
X13500Y111000D02*
X15000Y112500D01*
X11500Y117000D02*
X13000Y118500D01*
X30756D01*
X44500Y61500D02*
X49500Y56500D01*
X44500Y61500D02*
Y87500D01*
X48000Y62000D02*
X100500D01*
X42500Y60000D02*
X48500Y54000D01*
X42500Y60000D02*
Y94500D01*
X40195Y62695D02*
Y98844D01*
X32000Y54500D02*
X40195Y62695D01*
X32000Y46500D02*
Y54500D01*
X100500Y62000D02*
X102000Y63500D01*
Y69500D01*
X92000D02*
Y76000D01*
X88000Y80000D02*
X92000Y76000D01*
X61000Y80000D02*
X88000D01*
X59000Y82000D02*
X61000Y80000D01*
X82000Y69500D02*
Y76000D01*
X72000Y69500D02*
Y76000D01*
X62000Y69500D02*
Y77000D01*
X224500Y34500D02*
X228500Y38500D01*
X223500Y34500D02*
X224500D01*
X228500Y38500D02*
Y45267D01*
X24500Y84500D02*
Y97000D01*
X19563Y79563D02*
X24500Y84500D01*
X16158Y79563D02*
X19563D01*
X24500Y97000D02*
X33000Y105500D01*
X44500Y87500D02*
X46500Y89500D01*
X39375Y99664D02*
X40195Y98844D01*
X39336Y99664D02*
X39375D01*
X38000Y101000D02*
X39336Y99664D01*
X38000Y101000D02*
Y106000D01*
X41500Y109500D01*
X52000D01*
X23250D02*
X29000D01*
X23250Y115500D02*
X29032D01*
X23250Y121500D02*
X29032D01*
X33189Y115279D02*
Y115524D01*
X32969Y115500D02*
X33189Y115279D01*
Y115257D02*
Y115279D01*
X71672Y121500D02*
X76000Y125828D01*
X32969Y121500D02*
X71672D01*
X32969Y120713D02*
Y121500D01*
X30756Y118500D02*
X32969Y120713D01*
X30432Y112500D02*
X33189Y115257D01*
X33000Y109524D02*
X36524D01*
X33000Y105500D02*
Y109524D01*
X16158Y87437D02*
X22500Y93779D01*
X46500Y89500D02*
X52000D01*
X42500Y94500D02*
X47500Y99500D01*
X52000D01*
X80000Y174172D02*
X102000Y196172D01*
X80000Y124000D02*
Y174172D01*
X102000Y196172D02*
Y199500D01*
X92000Y189000D02*
Y199500D01*
X78000Y175000D02*
X92000Y189000D01*
X82000Y182000D02*
Y199500D01*
X76000Y176000D02*
X82000Y182000D01*
X76000Y125828D02*
Y176000D01*
X78000Y125000D02*
Y175000D01*
X174000Y121500D02*
Y172500D01*
X181500Y120000D02*
X182000Y119500D01*
X167000Y179500D02*
X174000Y172500D01*
X328000Y191500D02*
X330000Y193500D01*
X228500Y143500D02*
X229000Y143000D01*
X200468Y166000D02*
X205250D01*
X200468Y153500D02*
X205250D01*
X200468Y160000D02*
X205250D01*
X210750Y153500D02*
X215500D01*
X210750Y160000D02*
X215500D01*
X210750Y172000D02*
X215500D01*
X210750Y166000D02*
X215500D01*
X194000Y144000D02*
X196500Y146500D01*
Y147500D01*
X207250Y144000D02*
X210750Y147500D01*
X200437D02*
X205250D01*
X190500Y152000D02*
Y157500D01*
X188000Y149500D02*
X190500Y152000D01*
Y157500D02*
X193000Y160000D01*
X192500Y151500D02*
X194500Y153500D01*
X192500Y146500D02*
Y151500D01*
X185500Y139500D02*
X192500Y146500D01*
X193000Y160000D02*
X196531D01*
X190500Y164500D02*
X192000Y166000D01*
X190500Y161000D02*
Y164500D01*
X189000Y159500D02*
X190500Y161000D01*
X182000Y159500D02*
X189000D01*
X192000Y166000D02*
X196531D01*
Y152969D02*
X199000Y150500D01*
X196531Y152969D02*
Y153500D01*
X194500D02*
X196531D01*
X182000Y139500D02*
X185500D01*
X196531Y159733D02*
X199265Y157000D01*
X196531Y159733D02*
Y160000D01*
X182000Y149500D02*
X188000D01*
X196531Y164969D02*
X198500Y163000D01*
X196531Y164969D02*
Y166000D01*
X194032Y169500D02*
X194532Y169000D01*
X200468Y172000D02*
X205250D01*
X194032Y169500D02*
X196531Y172000D01*
X182000Y169500D02*
X194032D01*
X370551Y94551D02*
Y99803D01*
X349787Y76126D02*
X352126D01*
X323213D02*
X349787D01*
X349787Y91874D02*
X349787Y91874D01*
X323213Y118874D02*
X349787D01*
X323213Y91874D02*
X323213Y91874D01*
X205000Y39000D02*
X205500Y39500D01*
Y44532D01*
X205000Y53500D02*
X205500Y54000D01*
Y58563D01*
X188500Y67500D02*
X201000Y55000D01*
Y48244D02*
Y55000D01*
Y48244D02*
X204713Y44532D01*
X229500Y68000D02*
X232500Y71000D01*
X229500Y52000D02*
Y68000D01*
X225500D02*
X229000Y71500D01*
X225500Y62468D02*
Y68000D01*
Y48000D02*
X229500Y52000D01*
X215000Y56000D02*
Y76000D01*
X212000Y53000D02*
X215000Y56000D01*
X210032Y53000D02*
X212000D01*
X210972Y40335D02*
X216807Y34500D01*
X210972Y40335D02*
Y44500D01*
X225767Y48000D02*
X228500Y45267D01*
X225500Y48000D02*
X225767D01*
X222197Y40760D02*
X225500Y44063D01*
X205500Y48469D02*
X210032Y53000D01*
X220028Y62240D02*
Y66972D01*
X218500Y68500D02*
X220028Y66972D01*
X210972Y58500D02*
Y67665D01*
X211807Y68500D01*
X208500Y72500D02*
X212000Y76000D01*
X208500Y65500D02*
Y72500D01*
X203299Y68457D02*
X204043D01*
X199756Y72000D02*
X203299Y68457D01*
X205500Y62500D02*
X208500Y65500D01*
X220028Y9972D02*
Y40760D01*
Y9972D02*
X224400Y5600D01*
X225260Y48240D02*
X225500Y48000D01*
X220028Y48240D02*
X225260D01*
X220028Y62240D02*
X220256Y62468D01*
X225500D01*
X220028Y54760D02*
X223799Y58531D01*
X225500D01*
X220028Y40760D02*
X222197D01*
X216000Y44787D02*
X220028Y40760D01*
X216000Y44787D02*
Y50732D01*
X220028Y54760D01*
X210941Y44532D02*
X210972Y44500D01*
X205500Y44532D02*
X210941D01*
X204713D02*
X205500D01*
X201437Y58563D02*
X205500D01*
X190500Y69500D02*
X201437Y58563D01*
X172000Y69500D02*
X190500D01*
X193000Y71500D02*
X195846Y68654D01*
X197000D01*
X205500Y58563D02*
X205563Y58500D01*
X210972D01*
X175580Y63600D02*
X179480Y67500D01*
X168420Y63600D02*
X175580D01*
X162520Y69500D02*
X168420Y63600D01*
X179480Y67500D02*
X188500D01*
X372886Y49902D02*
X380760Y57775D01*
X372886Y75098D02*
X380760Y67225D01*
X327350Y27850D02*
X329000Y29500D01*
X327350Y26000D02*
Y27850D01*
Y26000D02*
X327758Y26408D01*
X333650Y26000D02*
X333693Y25957D01*
Y20500D02*
Y25957D01*
X370551Y119803D02*
X375215Y124467D01*
Y164285D01*
X373000Y166500D02*
X375215Y164285D01*
X368500Y166500D02*
X373000D01*
X375451Y114903D02*
X380551Y109803D01*
X366015Y140515D02*
X370075D01*
X365000Y139500D02*
X366015Y140515D01*
X364846Y144846D02*
X370075D01*
X360500Y140500D02*
X364846Y144846D01*
X352000Y127000D02*
X357063D01*
X360500Y132000D02*
X365531D01*
X360500D02*
Y140500D01*
X351969Y127000D02*
Y142469D01*
X363007Y153507D01*
X370075D01*
X370500Y127000D02*
Y132000D01*
X365651Y122151D02*
X370500Y127000D01*
X365651Y117773D02*
Y122151D01*
X368522Y114903D02*
X375451D01*
X365651Y117773D02*
X368522Y114903D01*
X363500Y116854D02*
X370551Y109803D01*
X363500Y116854D02*
Y124500D01*
X361000Y127000D02*
X363500Y124500D01*
X365067Y70976D02*
X368764D01*
X372886Y75098D01*
X380760Y67225D02*
X382531D01*
Y57775D02*
Y67225D01*
X380760Y57775D02*
X382531D01*
X357000Y132032D02*
Y135500D01*
Y132032D02*
X357031Y132000D01*
X348000Y127032D02*
Y130000D01*
Y127032D02*
X348031Y127000D01*
X358374Y74098D02*
X360252Y75976D01*
X364189D02*
X365067Y75098D01*
Y70976D02*
Y75098D01*
X368118Y67618D02*
X372000D01*
X367000Y66500D02*
X368118Y67618D01*
X382531Y67225D02*
Y75492D01*
Y49508D02*
Y57775D01*
X152000Y193000D02*
Y199500D01*
Y193000D02*
X155000Y190000D01*
X145000Y192500D02*
X147500Y190000D01*
X147000Y194500D02*
X151500Y190000D01*
X143000Y194500D02*
X147000D01*
X142000Y195500D02*
X143000Y194500D01*
X142000Y195500D02*
Y199500D01*
X122000Y194500D02*
Y199500D01*
Y194500D02*
X123500Y193000D01*
X132000Y194828D02*
Y199500D01*
X123500Y193000D02*
X131000D01*
X132000Y194828D02*
X134328Y192500D01*
X145000D01*
X131000Y193000D02*
X134000Y190000D01*
X144000D01*
X167000Y179500D02*
Y204000D01*
X228500Y205500D02*
X234000Y200000D01*
X167000Y204000D02*
X168500Y205500D01*
X228500D01*
X282374Y173126D02*
Y182343D01*
Y173126D02*
X286500Y169000D01*
X294500D01*
X297000Y166500D01*
Y163500D02*
Y166500D01*
X168000Y108500D02*
X174000Y114500D01*
X175500Y102480D02*
X177520Y104500D01*
X176000Y119500D02*
X182000D01*
X174000Y121500D02*
X176000Y119500D01*
X174000Y114500D02*
X186480D01*
X190000Y118020D01*
X182000Y129500D02*
X188500D01*
X190000Y118020D02*
Y127500D01*
X202500Y140000D01*
X299500D01*
X188500Y129500D02*
X203000Y144000D01*
X207250D01*
X182000Y99500D02*
X210500D01*
X212500Y101500D01*
X162000Y69500D02*
Y75500D01*
X172000Y69500D02*
Y75500D01*
X302500Y104500D02*
X316874Y118874D01*
X177520Y104500D02*
X302500D01*
X211500Y110500D02*
X214500Y107500D01*
X201000Y114000D02*
X206000Y119000D01*
X201000Y111000D02*
Y114000D01*
X199100Y109100D02*
X201000Y111000D01*
X182400Y109100D02*
X199100D01*
X182000Y109500D02*
X182400Y109100D01*
X206000Y119000D02*
Y126000D01*
X211500Y110500D02*
Y116000D01*
X216000Y120500D01*
Y126000D01*
X33189Y115257D02*
X37432Y119500D01*
X72500D01*
X78000Y125000D01*
X36524Y109524D02*
X44500Y117500D01*
X73500D01*
X80000Y124000D01*
X270000Y10000D02*
X274500Y5500D01*
X374000D01*
X387699Y19199D01*
Y112655D01*
X380551Y119803D02*
X387699Y112655D01*
X381500Y197098D02*
X383500Y204098D01*
X379500D02*
X381500Y197098D01*
X377100Y195700D02*
X385663D01*
X384500Y202098D02*
X385663Y195700D01*
X377500Y197098D02*
X379500Y204098D01*
D35*
X136500Y79500D02*
X171904D01*
X132000Y75000D02*
X136500Y79500D01*
X132000Y69500D02*
Y75000D01*
X171904Y79500D02*
X176604Y74800D01*
X204043D01*
Y75543D01*
D36*
X258752Y162657D02*
Y172748D01*
X252500Y179000D02*
X258752Y172748D01*
X257909Y181500D02*
X258752Y182343D01*
X271785Y82000D02*
X284285Y69500D01*
X194750Y82000D02*
X271785D01*
X270750Y79500D02*
X283250Y67000D01*
X182000Y79500D02*
X270750D01*
X187250Y89500D02*
X194750Y82000D01*
X283250Y67000D02*
X330147D01*
X284285Y69500D02*
X332000D01*
X182000Y89500D02*
X187250D01*
X346153Y65000D02*
X346654Y65500D01*
X341000Y65000D02*
X346153D01*
X344500Y60000D02*
X347000D01*
X343500Y61000D02*
X344500Y60000D01*
X341000Y61000D02*
X343500D01*
X332000Y69500D02*
X337000Y64500D01*
X330147Y67000D02*
X332500Y64647D01*
X172000Y179808D02*
Y199500D01*
Y179808D02*
X176858Y174950D01*
X196000Y180500D02*
X199000D01*
X182000Y179500D02*
X185500D01*
X176858Y174950D02*
X190450D01*
X196000Y180500D01*
X185500Y179500D02*
X193000Y187000D01*
X224500D01*
X182000Y189500D02*
X225500D01*
X224500Y187000D02*
X232500Y179000D01*
X252500D01*
X225500Y189500D02*
X233500Y181500D01*
X257909D01*
D37*
X345000Y30000D02*
X349000D01*
X344717D02*
X345000D01*
X346932Y16931D02*
X352740Y22740D01*
X306931Y16931D02*
X346932D01*
X352740Y22740D02*
Y38268D01*
X300000Y10000D02*
X306931Y16931D01*
X343817Y30900D02*
X344717Y30000D01*
X341749Y30900D02*
X343817D01*
X341378Y30528D02*
X341749Y30900D01*
X340972Y30528D02*
X341378D01*
X340000Y31500D02*
X340972Y30528D01*
X321327Y26173D02*
X327000Y20500D01*
X321173Y26173D02*
X321327D01*
X333162Y38193D02*
X340000D01*
X321173Y26204D02*
X333162Y38193D01*
X321173Y26173D02*
Y26204D01*
X316843Y26173D02*
X321173D01*
X367382Y57382D02*
X372000D01*
X366000Y53000D02*
Y56000D01*
X366959Y56959D02*
X367382Y57382D01*
X357346Y56959D02*
X366959D01*
X352647Y52260D02*
X357346Y56959D01*
X352465Y52260D02*
X352647D01*
X366000Y56000D02*
X366959Y56959D01*
X352465Y45492D02*
Y52260D01*
Y45492D02*
X352957Y45000D01*
X348693Y41000D02*
X349000D01*
X346193Y43500D02*
X348693Y41000D01*
X366000Y42000D02*
Y46307D01*
X352957Y45000D02*
X359764Y38193D01*
X360000D01*
X352957Y38484D02*
Y45000D01*
X352740Y38268D02*
X352957Y38484D01*
X360043Y45000D02*
Y52555D01*
X360535Y53047D01*
X360043Y44457D02*
Y45000D01*
Y44457D02*
X364500Y40000D01*
X360000Y31500D02*
X364000D01*
X340075Y38268D02*
X345260D01*
X340000Y38193D02*
X340075Y38268D01*
X340000Y38193D02*
Y43000D01*
X339500Y43500D02*
X340000Y43000D01*
D38*
X353346Y65500D02*
X355725Y63122D01*
Y63000D02*
Y63122D01*
X357157Y59740D02*
X360535D01*
X364500Y62500D02*
X372000D01*
X364000Y63000D02*
X364500Y62500D01*
X355725Y63000D02*
X364000D01*
X352465Y59740D02*
X355725Y63000D01*
X360736Y59941D02*
X372000D01*
X360535Y59740D02*
X360736Y59941D01*
X354676Y57259D02*
X357157Y59740D01*
X350952Y57259D02*
X354676D01*
X347000Y53307D02*
X350952Y57259D01*
D39*
X142000Y74500D02*
D03*
D40*
X162000Y196500D02*
D03*
X320000Y10000D02*
D03*
X284000Y200000D02*
D03*
X370000D02*
D03*
X300000Y10000D02*
D03*
D41*
X235000Y108500D02*
D03*
X238500Y108000D02*
D03*
X143500Y73000D02*
D03*
X140500D02*
D03*
Y75000D02*
D03*
X143500D02*
D03*
X366000Y157500D02*
D03*
X365500Y149000D02*
D03*
X348000Y139500D02*
D03*
X342000Y135000D02*
D03*
X361000Y171500D02*
D03*
X313000Y177500D02*
D03*
X14500Y121500D02*
D03*
Y115500D02*
D03*
X17750Y106250D02*
D03*
X48000Y62000D02*
D03*
X59000Y82000D02*
D03*
X82000Y76000D02*
D03*
X72000D02*
D03*
X62000Y77000D02*
D03*
X215500Y153500D02*
D03*
Y160000D02*
D03*
Y166000D02*
D03*
Y172000D02*
D03*
X194000Y144000D02*
D03*
X349787Y97500D02*
D03*
X323213D02*
D03*
X152000Y85000D02*
D03*
Y76000D02*
D03*
X229000Y71500D02*
D03*
X232500Y71000D02*
D03*
X199756Y72000D02*
D03*
X193000Y71500D02*
D03*
X329000Y29500D02*
D03*
X365000Y139500D02*
D03*
X357000Y135500D02*
D03*
X348000Y130000D02*
D03*
X358374Y66500D02*
D03*
X367000D02*
D03*
X366000Y42000D02*
D03*
X349000Y41000D02*
D03*
X364500Y40000D02*
D03*
X364000Y31500D02*
D03*
X345000Y30000D02*
D03*
X341000Y65000D02*
D03*
Y61000D02*
D03*
X332500Y64647D02*
D03*
X337000Y64500D02*
D03*
X155000Y190000D02*
D03*
X151500D02*
D03*
X147500D02*
D03*
X144000D02*
D03*
X163500Y197000D02*
D03*
X160500D02*
D03*
Y195000D02*
D03*
X163500D02*
D03*
X297000Y163500D02*
D03*
X212500Y101500D02*
D03*
X162000Y75500D02*
D03*
X172000D02*
D03*
X214500Y107500D02*
D03*
D42*
X42535Y103185D02*
D03*
X250878Y189035D02*
D03*
D43*
X35842Y95311D02*
D03*
D44*
Y87437D02*
D03*
Y79563D02*
D03*
Y71689D02*
D03*
X16158D02*
D03*
Y79563D02*
D03*
Y87437D02*
D03*
Y95311D02*
D03*
X199000Y180500D02*
D03*
X266626Y182343D02*
D03*
X274500D02*
D03*
X282374D02*
D03*
X290248D02*
D03*
X258752Y162657D02*
D03*
X266626D02*
D03*
X274500D02*
D03*
X282374D02*
D03*
X290248D02*
D03*
D45*
X22500Y198500D02*
D03*
D46*
Y178500D02*
D03*
Y158500D02*
D03*
Y138500D02*
D03*
D47*
X52000Y66500D02*
D03*
X222000Y73500D02*
D03*
D48*
X382531Y49508D02*
D03*
Y75492D02*
D03*
D49*
X370551Y119803D02*
D03*
X380551D02*
D03*
X370551Y109803D02*
D03*
X380551D02*
D03*
X370551Y99803D02*
D03*
X380551D02*
D03*
D50*
X330000Y10000D02*
D03*
X340000D02*
D03*
X350000D02*
D03*
X360000D02*
D03*
X370000D02*
D03*
X274000Y200000D02*
D03*
X264000D02*
D03*
X254000D02*
D03*
X244000D02*
D03*
X234000D02*
D03*
X224000D02*
D03*
X214000D02*
D03*
X204000D02*
D03*
X194000D02*
D03*
X340000D02*
D03*
X330000D02*
D03*
X320000D02*
D03*
X310000D02*
D03*
X300000D02*
D03*
X360000D02*
D03*
X350000D02*
D03*
X270000Y10000D02*
D03*
X260000D02*
D03*
X250000D02*
D03*
X240000D02*
D03*
X230000D02*
D03*
X290000D02*
D03*
X280000D02*
D03*
X109646Y46681D02*
D03*
X100000D02*
D03*
X168000D02*
D03*
X177646D02*
D03*
X41646D02*
D03*
X32000D02*
D03*
D51*
X380000Y30000D02*
D03*
D52*
X209000Y180500D02*
D03*
X258752Y182343D02*
D03*
D53*
X196000Y113000D02*
D03*
X206000D02*
D03*
X216000D02*
D03*
Y126000D02*
D03*
X206000D02*
D03*
X196000D02*
D03*
D54*
X226000Y113000D02*
D03*
Y126000D02*
D03*
D55*
X120000Y26681D02*
D03*
X80000D02*
D03*
X148000D02*
D03*
X188000D02*
D03*
X52000D02*
D03*
X12000D02*
D03*
M02*
