G04 Layer_Color=65535*
%FSLAX25Y25*%
%MOIN*%
G70*
G01*
G75*
%ADD34C,0.01200*%
%ADD38C,0.01000*%
%ADD57C,0.00591*%
%ADD58C,0.00600*%
%ADD59C,0.00984*%
%ADD60C,0.01260*%
%ADD61C,0.00500*%
%ADD62C,0.00598*%
%ADD63C,0.00787*%
%ADD64C,0.00197*%
%ADD65C,0.01969*%
%ADD66C,0.00700*%
%ADD67R,0.01969X0.15748*%
D34*
X248621Y184880D02*
X254380D01*
Y191000D01*
D38*
X44941Y128500D02*
Y208500D01*
X847Y128500D02*
X44941D01*
X847D02*
Y208500D01*
X44941D01*
X117000Y64500D02*
Y204500D01*
X106500Y64500D02*
Y204500D01*
X47000D02*
X187000D01*
Y64500D02*
Y204500D01*
X47000Y75000D02*
Y204500D01*
Y75000D02*
X57500Y64500D01*
X187000D01*
X365551Y94803D02*
X385551D01*
Y124803D01*
X365551Y114803D02*
X375551D01*
Y124803D01*
X365551Y94803D02*
Y122303D01*
X368051Y124803D01*
X385551D01*
X200500Y0D02*
Y53500D01*
X191000Y63000D02*
X200500Y53500D01*
X193500Y0D02*
Y49500D01*
X118000Y63000D02*
X191000D01*
X117000Y64000D02*
X118000Y63000D01*
X117000Y64000D02*
Y210000D01*
X189000Y54000D02*
X193500Y49500D01*
X113000Y54000D02*
X189000D01*
X106500Y60500D02*
X113000Y54000D01*
X106500Y60500D02*
Y210000D01*
X315000Y10000D02*
Y15000D01*
X325000D01*
Y5000D02*
X375000D01*
Y15000D01*
X325000D02*
X375000D01*
X325000Y5000D02*
Y15000D01*
X315000Y5000D02*
X325000D01*
X315000D02*
Y10000D01*
X289000Y195000D02*
Y205000D01*
X279000Y195000D02*
X289000D01*
X279000D02*
Y205000D01*
X189000D02*
X279000D01*
X189000Y195000D02*
Y205000D01*
Y195000D02*
X279000D01*
Y205000D02*
X289000D01*
X375000Y195000D02*
Y205000D01*
X295000Y195000D02*
X375000D01*
X295000D02*
Y205000D01*
X375000D01*
X365000Y195000D02*
Y205000D01*
X305000Y5000D02*
Y15000D01*
X225000Y5000D02*
X305000D01*
X225000D02*
Y15000D01*
X305000D01*
X295000Y5000D02*
Y15000D01*
X221000Y108000D02*
Y118000D01*
X231000Y108000D02*
Y118000D01*
X191000Y108000D02*
X231000D01*
X191000D02*
Y118000D01*
X231000D01*
X191000Y131000D02*
X231000D01*
X191000Y121000D02*
Y131000D01*
Y121000D02*
X231000D01*
Y131000D01*
X221000Y121000D02*
Y131000D01*
X117028Y4772D02*
X121161D01*
Y7035D01*
X117028D02*
X121161D01*
X117028D02*
Y7331D01*
X80807Y7921D02*
X86122D01*
X80807Y5362D02*
Y7921D01*
Y5362D02*
X86122D01*
Y2508D02*
X116929D01*
Y19043D01*
X72441Y54673D02*
X127461D01*
Y19043D02*
Y54673D01*
X116929Y19043D02*
X127461D01*
X86122Y2508D02*
Y19043D01*
X72441D02*
X86122D01*
X72441D02*
Y54673D01*
X140441Y19043D02*
Y54673D01*
Y19043D02*
X154122D01*
Y2508D02*
Y19043D01*
X184929D02*
X195461D01*
Y54673D01*
X140441D02*
X195461D01*
X184929Y2508D02*
Y19043D01*
X154122Y2508D02*
X184929D01*
X148807Y5362D02*
X154122D01*
X148807D02*
Y7921D01*
X154122D01*
X185028Y7035D02*
Y7331D01*
Y7035D02*
X189161D01*
Y4772D02*
Y7035D01*
X185028Y4772D02*
X189161D01*
X49028D02*
X53161D01*
Y7035D01*
X49028D02*
X53161D01*
X49028D02*
Y7331D01*
X12807Y7921D02*
X18122D01*
X12807Y5362D02*
Y7921D01*
Y5362D02*
X18122D01*
Y2508D02*
X48929D01*
Y19043D01*
X4441Y54673D02*
X59461D01*
Y19043D02*
Y54673D01*
X48929Y19043D02*
X59461D01*
X18122Y2508D02*
Y19043D01*
X4441D02*
X18122D01*
X4441D02*
Y54673D01*
X327502Y31000D02*
X332500D01*
X333500Y32000D01*
Y33999D01*
X332500Y34999D01*
X327502D01*
X328502Y40997D02*
X327502Y39997D01*
Y37998D01*
X328502Y36998D01*
X329501D01*
X330501Y37998D01*
Y39997D01*
X331501Y40997D01*
X332500D01*
X333500Y39997D01*
Y37998D01*
X332500Y36998D01*
X327502Y42996D02*
X333500D01*
Y45995D01*
X332500Y46995D01*
X331501D01*
X330501Y45995D01*
Y42996D01*
Y45995D01*
X329501Y46995D01*
X328502D01*
X327502Y45995D01*
Y42996D01*
X293000Y55000D02*
Y60998D01*
X295999D01*
X296999Y59998D01*
Y57999D01*
X295999Y56999D01*
X293000D01*
X299998Y55000D02*
X301997D01*
X302997Y56000D01*
Y57999D01*
X301997Y58999D01*
X299998D01*
X298998Y57999D01*
Y56000D01*
X299998Y55000D01*
X304996Y58999D02*
Y56000D01*
X305996Y55000D01*
X306996Y56000D01*
X307995Y55000D01*
X308995Y56000D01*
Y58999D01*
X313993Y55000D02*
X311994D01*
X310994Y56000D01*
Y57999D01*
X311994Y58999D01*
X313993D01*
X314993Y57999D01*
Y56999D01*
X310994D01*
X316992Y58999D02*
Y55000D01*
Y56999D01*
X317992Y57999D01*
X318992Y58999D01*
X319991D01*
X195499Y138498D02*
X194499Y139498D01*
X192500D01*
X191500Y138498D01*
Y134500D01*
X192500Y133500D01*
X194499D01*
X195499Y134500D01*
X197498Y133500D02*
Y137499D01*
X199497Y139498D01*
X201497Y137499D01*
Y133500D01*
Y136499D01*
X197498D01*
X203496Y133500D02*
Y139498D01*
X207495Y133500D01*
Y139498D01*
X191500Y105498D02*
Y100500D01*
X192500Y99500D01*
X194499D01*
X195499Y100500D01*
Y105498D01*
X197498Y99500D02*
Y103499D01*
X199497Y105498D01*
X201497Y103499D01*
Y99500D01*
Y102499D01*
X197498D01*
X203496Y99500D02*
Y105498D01*
X206495D01*
X207495Y104498D01*
Y102499D01*
X206495Y101499D01*
X203496D01*
X205496D02*
X207495Y99500D01*
X209494Y105498D02*
X213493D01*
X211493D01*
Y99500D01*
X266999Y143998D02*
X263000D01*
Y138000D01*
X266999D01*
X263000Y140999D02*
X264999D01*
X268998Y143998D02*
Y139999D01*
X270997Y138000D01*
X272997Y139999D01*
Y143998D01*
X278995Y142998D02*
X277995Y143998D01*
X275996D01*
X274996Y142998D01*
Y141999D01*
X275996Y140999D01*
X277995D01*
X278995Y139999D01*
Y139000D01*
X277995Y138000D01*
X275996D01*
X274996Y139000D01*
X284993Y143998D02*
X280994D01*
Y138000D01*
X284993D01*
X280994Y140999D02*
X282994D01*
X318500Y124500D02*
Y130498D01*
X321499D01*
X322499Y129498D01*
Y127499D01*
X321499Y126499D01*
X318500D01*
X324498Y124500D02*
Y130498D01*
X327497D01*
X328497Y129498D01*
Y127499D01*
X327497Y126499D01*
X324498D01*
X326497D02*
X328497Y124500D01*
X319000Y64500D02*
Y68499D01*
X320999Y70498D01*
X322999Y68499D01*
Y64500D01*
Y67499D01*
X319000D01*
X324998Y64500D02*
Y70498D01*
X327997D01*
X328997Y69498D01*
Y67499D01*
X327997Y66499D01*
X324998D01*
X326997D02*
X328997Y64500D01*
X49499Y60998D02*
X48499Y61998D01*
X46500D01*
X45500Y60998D01*
Y57000D01*
X46500Y56000D01*
X48499D01*
X49499Y57000D01*
X51498Y61998D02*
X55497D01*
X53497D01*
Y56000D01*
X57496D02*
X59496D01*
X58496D01*
Y61998D01*
X57496Y60998D01*
X77499D02*
X76499Y61998D01*
X74500D01*
X73500Y60998D01*
Y57000D01*
X74500Y56000D01*
X76499D01*
X77499Y57000D01*
X79498Y61998D02*
X83497D01*
X81497D01*
Y56000D01*
X89495D02*
X85496D01*
X89495Y59999D01*
Y60998D01*
X88495Y61998D01*
X86496D01*
X85496Y60998D01*
X144999D02*
X143999Y61998D01*
X142000D01*
X141000Y60998D01*
Y57000D01*
X142000Y56000D01*
X143999D01*
X144999Y57000D01*
X146998Y61998D02*
X150997D01*
X148997D01*
Y56000D01*
X152996Y60998D02*
X153996Y61998D01*
X155995D01*
X156995Y60998D01*
Y59999D01*
X155995Y58999D01*
X154996D01*
X155995D01*
X156995Y57999D01*
Y57000D01*
X155995Y56000D01*
X153996D01*
X152996Y57000D01*
X3000Y201498D02*
Y195500D01*
X6999D01*
X8998D02*
X10997D01*
X9998D01*
Y201498D01*
X8998Y200498D01*
X3500Y181998D02*
Y176000D01*
X7499D01*
X13497D02*
X9498D01*
X13497Y179999D01*
Y180998D01*
X12497Y181998D01*
X10498D01*
X9498Y180998D01*
X3500Y161998D02*
Y156000D01*
X7499D01*
X9498Y160998D02*
X10498Y161998D01*
X12497D01*
X13497Y160998D01*
Y159999D01*
X12497Y158999D01*
X11497D01*
X12497D01*
X13497Y157999D01*
Y157000D01*
X12497Y156000D01*
X10498D01*
X9498Y157000D01*
X4000Y135500D02*
Y141498D01*
X7999Y135500D01*
Y141498D01*
X204002Y4000D02*
X208001D01*
X210000Y5999D01*
X208001Y7999D01*
X204002D01*
X210000Y9998D02*
Y11997D01*
Y10998D01*
X204002D01*
X205002Y9998D01*
X210000Y14996D02*
X209000D01*
Y15996D01*
X210000D01*
Y14996D01*
X205002Y19995D02*
X204002Y20994D01*
Y22994D01*
X205002Y23993D01*
X209000D01*
X210000Y22994D01*
Y20994D01*
X209000Y19995D01*
X205002D01*
D57*
X231256Y143500D02*
G03*
X231256Y143500I-2756J0D01*
G01*
X207756Y39000D02*
G03*
X207756Y39000I-2756J0D01*
G01*
Y53500D02*
G03*
X207756Y53500I-2756J0D01*
G01*
X347622Y36693D02*
X350378D01*
X343291Y30394D02*
Y35512D01*
X354709Y30394D02*
Y35512D01*
X343291Y30394D02*
X346835D01*
X351165D02*
X354709D01*
D58*
X342802Y84000D02*
G03*
X342802Y84000I-6302J0D01*
G01*
Y111000D02*
G03*
X342802Y111000I-6302J0D01*
G01*
X324689Y72189D02*
Y95811D01*
X348311D01*
Y72189D02*
Y95811D01*
X324689Y72189D02*
X348311D01*
X348311Y99189D02*
Y122811D01*
X324689Y99189D02*
X348311D01*
X324689D02*
Y122811D01*
X348311D01*
X390406Y47736D02*
Y77264D01*
X371016Y75394D02*
Y77264D01*
Y47736D02*
Y49606D01*
X289283Y29913D02*
X324716D01*
X289283D02*
Y44087D01*
X324716D01*
Y29913D02*
Y44087D01*
X299126Y33063D02*
X314874D01*
X299126D02*
Y40937D01*
X314874D01*
Y33063D02*
Y40937D01*
X307315Y33063D02*
Y40937D01*
X302039Y34244D02*
Y39756D01*
X304402Y34244D02*
Y39756D01*
X302118Y34244D02*
X304402D01*
X302039Y39756D02*
X304402D01*
D59*
X356677Y38268D02*
G03*
X356677Y38268I-394J0D01*
G01*
X361028Y48913D02*
G03*
X361028Y48913I-492J0D01*
G01*
D60*
X375685Y170968D02*
G03*
X375685Y170968I-591J0D01*
G01*
D61*
X606Y61059D02*
Y105941D01*
Y61059D02*
X45094D01*
X606Y105941D02*
X45094D01*
Y61059D02*
Y105941D01*
X-181Y91177D02*
X606Y91965D01*
X-181Y75823D02*
X606Y75035D01*
X-181Y75823D02*
Y75823D01*
Y91177D01*
X219400Y36100D02*
X220600D01*
X219400Y32900D02*
X220600D01*
X214553Y70100D02*
X215754D01*
X214553Y66900D02*
X215754D01*
X201480Y72589D02*
X206607D01*
X201480Y71411D02*
X206607D01*
X342146Y41625D02*
Y45375D01*
X343547Y41625D02*
Y45375D01*
X338125Y34146D02*
X341875D01*
X338125Y35546D02*
X341875D01*
X358125Y34146D02*
X361875D01*
X358125Y35546D02*
X361875D01*
X362421Y69102D02*
Y72851D01*
X361020Y69102D02*
Y72851D01*
X366354Y73811D02*
Y78142D01*
X363205Y73811D02*
X366354D01*
X358087D02*
X361236D01*
X358087D02*
Y78142D01*
X361236D01*
X363205D02*
X366354D01*
X345400Y56054D02*
Y57253D01*
X348600Y56054D02*
Y57253D01*
X349400Y63900D02*
X350600D01*
X349400Y67100D02*
X350600D01*
X195125Y72700D02*
X198875D01*
X195125Y71300D02*
X198875D01*
X329747Y22100D02*
X330946D01*
X329747Y18900D02*
X330946D01*
X364125Y48954D02*
X367875D01*
X364125Y50354D02*
X367875D01*
X357089Y42436D02*
Y47564D01*
X355911Y42436D02*
Y47564D01*
X327260Y135731D02*
Y139374D01*
Y147937D02*
Y161815D01*
X327359Y170476D02*
Y190752D01*
X385232Y135633D02*
X387240D01*
X327456Y135535D02*
X376276D01*
X327359Y190752D02*
X381000D01*
X387240Y135633D02*
Y185732D01*
X194366Y169835D02*
Y174165D01*
X197516D01*
X199484D02*
X202634D01*
Y169835D02*
Y174165D01*
X199484Y169835D02*
X202634D01*
X194366D02*
X197516D01*
X14750Y110500D02*
X15750Y111500D01*
X19250D01*
X14750Y108500D02*
X15750Y107500D01*
X19250D01*
X15750D02*
Y111500D01*
X14750Y108500D02*
Y110500D01*
X25250Y107500D02*
Y111500D01*
X21750D02*
X25250D01*
X21750Y107500D02*
X25250D01*
X35102Y107335D02*
Y111665D01*
X31953Y107335D02*
X35102D01*
X26835D02*
X29984D01*
X26835D02*
Y111665D01*
X29984D01*
X31953D02*
X35102D01*
X14750Y116500D02*
X15750Y117500D01*
X19250D01*
X14750Y114500D02*
X15750Y113500D01*
X19250D01*
X15750D02*
Y117500D01*
X14750Y114500D02*
Y116500D01*
X25250Y113500D02*
Y117500D01*
X21750D02*
X25250D01*
X21750Y113500D02*
X25250D01*
X14750Y122500D02*
X15750Y123500D01*
X19250D01*
X14750Y120500D02*
X15750Y119500D01*
X19250D01*
X15750D02*
Y123500D01*
X14750Y120500D02*
Y122500D01*
X25250Y119500D02*
Y123500D01*
X21750D02*
X25250D01*
X21750Y119500D02*
X25250D01*
X35134Y113335D02*
Y117665D01*
X31984Y113335D02*
X35134D01*
X26866D02*
X30016D01*
X26866D02*
Y117665D01*
X30016D01*
X31984D02*
X35134D01*
Y119335D02*
Y123665D01*
X31984Y119335D02*
X35134D01*
X26866D02*
X30016D01*
X26866D02*
Y123665D01*
X30016D01*
X31984D02*
X35134D01*
X212750Y164000D02*
X213750Y165000D01*
X209250Y164000D02*
X212750D01*
Y168000D02*
X213750Y167000D01*
X209250Y168000D02*
X212750D01*
Y164000D02*
Y168000D01*
X213750Y165000D02*
Y167000D01*
X203250Y164000D02*
Y168000D01*
Y164000D02*
X206750D01*
X203250Y168000D02*
X206750D01*
X194366Y163835D02*
Y168165D01*
X197516D01*
X199484D02*
X202634D01*
Y163835D02*
Y168165D01*
X199484Y163835D02*
X202634D01*
X194366D02*
X197516D01*
X212750Y158000D02*
X213750Y159000D01*
X209250Y158000D02*
X212750D01*
Y162000D02*
X213750Y161000D01*
X209250Y162000D02*
X212750D01*
Y158000D02*
Y162000D01*
X213750Y159000D02*
Y161000D01*
X203250Y158000D02*
Y162000D01*
Y158000D02*
X206750D01*
X203250Y162000D02*
X206750D01*
X194366Y157835D02*
Y162165D01*
X197516D01*
X199484D02*
X202634D01*
Y157835D02*
Y162165D01*
X199484Y157835D02*
X202634D01*
X194366D02*
X197516D01*
X212750Y170000D02*
X213750Y171000D01*
X209250Y170000D02*
X212750D01*
Y174000D02*
X213750Y173000D01*
X209250Y174000D02*
X212750D01*
Y170000D02*
Y174000D01*
X213750Y171000D02*
Y173000D01*
X203250Y170000D02*
Y174000D01*
Y170000D02*
X206750D01*
X203250Y174000D02*
X206750D01*
X212750Y151500D02*
X213750Y152500D01*
X209250Y151500D02*
X212750D01*
Y155500D02*
X213750Y154500D01*
X209250Y155500D02*
X212750D01*
Y151500D02*
Y155500D01*
X213750Y152500D02*
Y154500D01*
X203250Y151500D02*
Y155500D01*
Y151500D02*
X206750D01*
X203250Y155500D02*
X206750D01*
X194366Y151335D02*
Y155665D01*
X197516D01*
X199484D02*
X202634D01*
Y151335D02*
Y155665D01*
X199484Y151335D02*
X202634D01*
X194366D02*
X197516D01*
X202602Y145335D02*
Y149665D01*
X199453Y145335D02*
X202602D01*
X194335D02*
X197484D01*
X194335D02*
Y149665D01*
X197484D01*
X199453D02*
X202602D01*
X212750Y145500D02*
X213750Y146500D01*
X209250Y145500D02*
X212750D01*
Y149500D02*
X213750Y148500D01*
X209250Y149500D02*
X212750D01*
Y145500D02*
Y149500D01*
X213750Y146500D02*
Y148500D01*
X203250Y145500D02*
Y149500D01*
Y145500D02*
X206750D01*
X203250Y149500D02*
X206750D01*
X324394Y23500D02*
Y28500D01*
X324500D02*
X329000D01*
X324500Y23500D02*
X329000D01*
X335606D02*
X336606Y24500D01*
X335606Y28500D02*
X336606Y27500D01*
Y24500D02*
Y27500D01*
X331606Y28500D02*
X335606D01*
X331606Y23500D02*
X335606D01*
X217000Y38791D02*
Y50209D01*
X214000D02*
X217000D01*
X214000Y38791D02*
Y50209D01*
Y38791D02*
X217000D01*
X227665Y41898D02*
Y45047D01*
Y47016D02*
Y50165D01*
X223335D02*
X227665D01*
X223335Y47016D02*
Y50165D01*
Y41898D02*
Y45047D01*
Y41898D02*
X227665D01*
X217000Y52791D02*
Y64209D01*
X214000D02*
X217000D01*
X214000Y52791D02*
Y64209D01*
Y52791D02*
X217000D01*
X227665Y56366D02*
Y59516D01*
Y61484D02*
Y64634D01*
X223335D02*
X227665D01*
X223335Y61484D02*
Y64634D01*
Y56366D02*
Y59516D01*
Y56366D02*
X227665D01*
X203335Y61516D02*
Y64665D01*
Y56398D02*
Y59547D01*
Y56398D02*
X207665D01*
Y59547D01*
Y61516D02*
Y64665D01*
X203335D02*
X207665D01*
X203335Y47484D02*
Y50634D01*
Y42366D02*
Y45516D01*
Y42366D02*
X207665D01*
Y45516D01*
Y47484D02*
Y50634D01*
X203335D02*
X207665D01*
X354866Y129835D02*
X358016D01*
X359984D02*
X363134D01*
Y134165D01*
X359984D02*
X363134D01*
X354866D02*
X358016D01*
X354866Y129835D02*
Y134165D01*
X345866Y124835D02*
X349016D01*
X350984D02*
X354134D01*
Y129165D01*
X350984D02*
X354134D01*
X345866D02*
X349016D01*
X345866Y124835D02*
Y129165D01*
X369453Y134165D02*
X372602D01*
X364335D02*
X367484D01*
X364335Y129835D02*
Y134165D01*
Y129835D02*
X367484D01*
X369453D02*
X372602D01*
Y134165D01*
X339835Y130484D02*
Y133634D01*
Y125366D02*
Y128516D01*
Y125366D02*
X344165D01*
Y128516D01*
Y130484D02*
Y133634D01*
X339835D02*
X344165D01*
X360016Y129165D02*
X363165D01*
X354898D02*
X358047D01*
X354898Y124835D02*
Y129165D01*
Y124835D02*
X358047D01*
X360016D02*
X363165D01*
Y129165D01*
X334835Y130453D02*
Y133602D01*
Y125335D02*
Y128484D01*
Y125335D02*
X339165D01*
Y128484D01*
Y130453D02*
Y133602D01*
X334835D02*
X339165D01*
X248122Y147106D02*
X300878D01*
Y191595D01*
X248122Y147106D02*
Y191595D01*
X300878D01*
X266035Y147106D02*
X266823Y146319D01*
X282177D02*
X282965Y147106D01*
X282177Y146319D02*
X282177D01*
X266823D02*
X282177D01*
X193333Y208666D02*
X193000Y208999D01*
X192333D01*
X192000Y208666D01*
Y208333D01*
X192333Y208000D01*
X193000D01*
X193333Y207666D01*
Y207333D01*
X193000Y207000D01*
X192333D01*
X192000Y207333D01*
X195332Y208666D02*
X194999Y208999D01*
X194333D01*
X193999Y208666D01*
Y207333D01*
X194333Y207000D01*
X194999D01*
X195332Y207333D01*
X195999Y208999D02*
Y207000D01*
X197332D01*
X203333Y208666D02*
X203000Y208999D01*
X202333D01*
X202000Y208666D01*
Y208333D01*
X202333Y208000D01*
X203000D01*
X203333Y207666D01*
Y207333D01*
X203000Y207000D01*
X202333D01*
X202000Y207333D01*
X203999Y208999D02*
Y207000D01*
X204999D01*
X205332Y207333D01*
Y208666D01*
X204999Y208999D01*
X203999D01*
X205999Y207000D02*
Y208333D01*
X206665Y208999D01*
X207332Y208333D01*
Y207000D01*
Y208000D01*
X205999D01*
X235000Y3999D02*
X235666D01*
X235333D01*
Y2000D01*
X235000D01*
X235666D01*
X237666Y3999D02*
X236999D01*
X236666Y3666D01*
Y2333D01*
X236999Y2000D01*
X237666D01*
X237999Y2333D01*
Y3666D01*
X237666Y3999D01*
X238666Y2000D02*
Y3999D01*
X239665D01*
X239998Y3666D01*
Y3000D01*
X239665Y2667D01*
X238666D01*
X239332D02*
X239998Y2000D01*
X241998Y3999D02*
X240665D01*
Y2000D01*
X241998D01*
X240665Y3000D02*
X241331D01*
X243997Y3999D02*
X242664D01*
Y3000D01*
X243331D01*
X242664D01*
Y2000D01*
X246000D02*
Y3999D01*
X247000D01*
X247333Y3666D01*
Y3000D01*
X247000Y2667D01*
X246000D01*
X246666D02*
X247333Y2000D01*
X249332Y3999D02*
X247999D01*
Y2000D01*
X249332D01*
X247999Y3000D02*
X248666D01*
X251332Y3666D02*
X250998Y3999D01*
X250332D01*
X249999Y3666D01*
Y3333D01*
X250332Y3000D01*
X250998D01*
X251332Y2667D01*
Y2333D01*
X250998Y2000D01*
X250332D01*
X249999Y2333D01*
X253331Y3999D02*
X251998D01*
Y2000D01*
X253331D01*
X251998Y3000D02*
X252664D01*
X253997Y3999D02*
X255330D01*
X254664D01*
Y2000D01*
X258000Y3666D02*
X258333Y3999D01*
X259000D01*
X259333Y3666D01*
Y3333D01*
X259000Y3000D01*
X258666D01*
X259000D01*
X259333Y2667D01*
Y2333D01*
X259000Y2000D01*
X258333D01*
X258000Y2333D01*
X259999Y3333D02*
X260666Y2000D01*
X261332Y3333D01*
X261999Y3666D02*
X262332Y3999D01*
X262998D01*
X263332Y3666D01*
Y3333D01*
X262998Y3000D01*
X262665D01*
X262998D01*
X263332Y2667D01*
Y2333D01*
X262998Y2000D01*
X262332D01*
X261999Y2333D01*
X269333Y3999D02*
X268000D01*
Y3000D01*
X268666Y3333D01*
X269000D01*
X269333Y3000D01*
Y2333D01*
X269000Y2000D01*
X268333D01*
X268000Y2333D01*
X269999Y3333D02*
X270666Y2000D01*
X271332Y3333D01*
X278333Y3666D02*
X278000Y3999D01*
X277333D01*
X277000Y3666D01*
Y2333D01*
X277333Y2000D01*
X278000D01*
X278333Y2333D01*
Y3000D01*
X277666D01*
X278999Y2000D02*
Y3999D01*
X280332Y2000D01*
Y3999D01*
X280999D02*
Y2000D01*
X281998D01*
X282332Y2333D01*
Y3666D01*
X281998Y3999D01*
X280999D01*
X288833Y3666D02*
X288500Y3999D01*
X287833D01*
X287500Y3666D01*
Y2333D01*
X287833Y2000D01*
X288500D01*
X288833Y2333D01*
Y3000D01*
X288166D01*
X289499Y2000D02*
Y3999D01*
X290832Y2000D01*
Y3999D01*
X291499D02*
Y2000D01*
X292498D01*
X292832Y2333D01*
Y3666D01*
X292498Y3999D01*
X291499D01*
X297000D02*
Y2667D01*
X297666Y2000D01*
X298333Y2667D01*
Y3999D01*
X298999Y2000D02*
X299666D01*
X299333D01*
Y3333D01*
X298999D01*
X300665Y2000D02*
Y3333D01*
X301665D01*
X301998Y3000D01*
Y2000D01*
X318000D02*
Y3333D01*
X318666Y3999D01*
X319333Y3333D01*
Y2000D01*
Y3000D01*
X318000D01*
X319999Y3999D02*
Y2000D01*
X320999D01*
X321332Y2333D01*
Y3666D01*
X320999Y3999D01*
X319999D01*
X321999Y3666D02*
X322332Y3999D01*
X322998D01*
X323332Y3666D01*
Y2333D01*
X322998Y2000D01*
X322332D01*
X321999Y2333D01*
Y3666D01*
X328000Y2000D02*
Y3333D01*
X328666Y3999D01*
X329333Y3333D01*
Y2000D01*
Y3000D01*
X328000D01*
X329999Y3999D02*
Y2000D01*
X330999D01*
X331332Y2333D01*
Y3666D01*
X330999Y3999D01*
X329999D01*
X331999Y2000D02*
X332665D01*
X332332D01*
Y3999D01*
X331999Y3666D01*
X338000Y2000D02*
Y3333D01*
X338666Y3999D01*
X339333Y3333D01*
Y2000D01*
Y3000D01*
X338000D01*
X339999Y3999D02*
Y2000D01*
X340999D01*
X341332Y2333D01*
Y3666D01*
X340999Y3999D01*
X339999D01*
X343332Y2000D02*
X341999D01*
X343332Y3333D01*
Y3666D01*
X342998Y3999D01*
X342332D01*
X341999Y3666D01*
X348000Y2000D02*
Y3333D01*
X348666Y3999D01*
X349333Y3333D01*
Y2000D01*
Y3000D01*
X348000D01*
X349999Y3999D02*
Y2000D01*
X350999D01*
X351332Y2333D01*
Y3666D01*
X350999Y3999D01*
X349999D01*
X351999Y3666D02*
X352332Y3999D01*
X352998D01*
X353332Y3666D01*
Y3333D01*
X352998Y3000D01*
X352665D01*
X352998D01*
X353332Y2667D01*
Y2333D01*
X352998Y2000D01*
X352332D01*
X351999Y2333D01*
X358000Y2000D02*
Y3333D01*
X358666Y3999D01*
X359333Y3333D01*
Y2000D01*
Y3000D01*
X358000D01*
X359999Y3999D02*
Y2000D01*
X360999D01*
X361332Y2333D01*
Y3666D01*
X360999Y3999D01*
X359999D01*
X362998Y2000D02*
Y3999D01*
X361999Y3000D01*
X363332D01*
X368000Y2000D02*
Y3333D01*
X368666Y3999D01*
X369333Y3333D01*
Y2000D01*
Y3000D01*
X368000D01*
X369999Y3999D02*
Y2000D01*
X370999D01*
X371332Y2333D01*
Y3666D01*
X370999Y3999D01*
X369999D01*
X373332D02*
X371999D01*
Y3000D01*
X372665Y3333D01*
X372998D01*
X373332Y3000D01*
Y2333D01*
X372998Y2000D01*
X372332D01*
X371999Y2333D01*
X365000Y208999D02*
X365666D01*
X365333D01*
Y207000D01*
X365000D01*
X365666D01*
X367666Y208999D02*
X366999D01*
X366666Y208666D01*
Y207333D01*
X366999Y207000D01*
X367666D01*
X367999Y207333D01*
Y208666D01*
X367666Y208999D01*
X368666Y208666D02*
X368999Y208999D01*
X369665D01*
X369998Y208666D01*
Y207333D01*
X369665Y207000D01*
X368999D01*
X368666Y207333D01*
Y208666D01*
X358000Y208999D02*
X358666D01*
X358333D01*
Y207000D01*
X358000D01*
X358666D01*
X360666Y208999D02*
X359999D01*
X359666Y208666D01*
Y207333D01*
X359999Y207000D01*
X360666D01*
X360999Y207333D01*
Y208666D01*
X360666Y208999D01*
X361666Y207000D02*
X362332D01*
X361999D01*
Y208999D01*
X361666Y208666D01*
X348000Y208999D02*
X348666D01*
X348333D01*
Y207000D01*
X348000D01*
X348666D01*
X350666Y208999D02*
X349999D01*
X349666Y208666D01*
Y207333D01*
X349999Y207000D01*
X350666D01*
X350999Y207333D01*
Y208666D01*
X350666Y208999D01*
X352998Y207000D02*
X351665D01*
X352998Y208333D01*
Y208666D01*
X352665Y208999D01*
X351999D01*
X351665Y208666D01*
X338000Y208999D02*
X338666D01*
X338333D01*
Y207000D01*
X338000D01*
X338666D01*
X340666Y208999D02*
X339999D01*
X339666Y208666D01*
Y207333D01*
X339999Y207000D01*
X340666D01*
X340999Y207333D01*
Y208666D01*
X340666Y208999D01*
X341666Y208666D02*
X341999Y208999D01*
X342665D01*
X342998Y208666D01*
Y208333D01*
X342665Y208000D01*
X342332D01*
X342665D01*
X342998Y207666D01*
Y207333D01*
X342665Y207000D01*
X341999D01*
X341666Y207333D01*
X327000Y208999D02*
X327666D01*
X327333D01*
Y207000D01*
X327000D01*
X327666D01*
X329666Y208999D02*
X328999D01*
X328666Y208666D01*
Y207333D01*
X328999Y207000D01*
X329666D01*
X329999Y207333D01*
Y208666D01*
X329666Y208999D01*
X331665Y207000D02*
Y208999D01*
X330665Y208000D01*
X331998D01*
X316500Y208999D02*
X317166D01*
X316833D01*
Y207000D01*
X316500D01*
X317166D01*
X319166Y208999D02*
X318499D01*
X318166Y208666D01*
Y207333D01*
X318499Y207000D01*
X319166D01*
X319499Y207333D01*
Y208666D01*
X319166Y208999D01*
X321498D02*
X320165D01*
Y208000D01*
X320832Y208333D01*
X321165D01*
X321498Y208000D01*
Y207333D01*
X321165Y207000D01*
X320499D01*
X320165Y207333D01*
X307000Y208999D02*
X307666D01*
X307333D01*
Y207000D01*
X307000D01*
X307666D01*
X309666Y208999D02*
X308999D01*
X308666Y208666D01*
Y207333D01*
X308999Y207000D01*
X309666D01*
X309999Y207333D01*
Y208666D01*
X309666Y208999D01*
X311998D02*
X311332Y208666D01*
X310665Y208000D01*
Y207333D01*
X310999Y207000D01*
X311665D01*
X311998Y207333D01*
Y207666D01*
X311665Y208000D01*
X310665D01*
X298000Y208999D02*
X298666D01*
X298333D01*
Y207000D01*
X298000D01*
X298666D01*
X300666Y208999D02*
X299999D01*
X299666Y208666D01*
Y207333D01*
X299999Y207000D01*
X300666D01*
X300999Y207333D01*
Y208666D01*
X300666Y208999D01*
X301665D02*
X302998D01*
Y208666D01*
X301665Y207333D01*
Y207000D01*
X282000Y208999D02*
X282666D01*
X282333D01*
Y207000D01*
X282000D01*
X282666D01*
X284666Y208999D02*
X283999D01*
X283666Y208666D01*
Y207333D01*
X283999Y207000D01*
X284666D01*
X284999Y207333D01*
Y208666D01*
X284666Y208999D01*
X285665Y208666D02*
X285999Y208999D01*
X286665D01*
X286998Y208666D01*
Y208333D01*
X286665Y208000D01*
X286998Y207666D01*
Y207333D01*
X286665Y207000D01*
X285999D01*
X285665Y207333D01*
Y207666D01*
X285999Y208000D01*
X285665Y208333D01*
Y208666D01*
X285999Y208000D02*
X286665D01*
X272000Y208999D02*
X272666D01*
X272333D01*
Y207000D01*
X272000D01*
X272666D01*
X274666Y208999D02*
X273999D01*
X273666Y208666D01*
Y207333D01*
X273999Y207000D01*
X274666D01*
X274999Y207333D01*
Y208666D01*
X274666Y208999D01*
X275665Y207333D02*
X275999Y207000D01*
X276665D01*
X276998Y207333D01*
Y208666D01*
X276665Y208999D01*
X275999D01*
X275665Y208666D01*
Y208333D01*
X275999Y208000D01*
X276998D01*
X261000Y208999D02*
X261666D01*
X261333D01*
Y207000D01*
X261000D01*
X261666D01*
X263666Y208999D02*
X262999D01*
X262666Y208666D01*
Y207333D01*
X262999Y207000D01*
X263666D01*
X263999Y207333D01*
Y208666D01*
X263666Y208999D01*
X264666Y207000D02*
X265332D01*
X264999D01*
Y208999D01*
X264666Y208666D01*
X266332D02*
X266665Y208999D01*
X267331D01*
X267665Y208666D01*
Y207333D01*
X267331Y207000D01*
X266665D01*
X266332Y207333D01*
Y208666D01*
X251000Y208999D02*
X251666D01*
X251333D01*
Y207000D01*
X251000D01*
X251666D01*
X253666Y208999D02*
X252999D01*
X252666Y208666D01*
Y207333D01*
X252999Y207000D01*
X253666D01*
X253999Y207333D01*
Y208666D01*
X253666Y208999D01*
X254665Y207000D02*
X255332D01*
X254999D01*
Y208999D01*
X254665Y208666D01*
X256332Y207000D02*
X256998D01*
X256665D01*
Y208999D01*
X256332Y208666D01*
X241000Y208999D02*
X241666D01*
X241333D01*
Y207000D01*
X241000D01*
X241666D01*
X243666Y208999D02*
X242999D01*
X242666Y208666D01*
Y207333D01*
X242999Y207000D01*
X243666D01*
X243999Y207333D01*
Y208666D01*
X243666Y208999D01*
X244666Y207000D02*
X245332D01*
X244999D01*
Y208999D01*
X244666Y208666D01*
X247664Y207000D02*
X246332D01*
X247664Y208333D01*
Y208666D01*
X247331Y208999D01*
X246665D01*
X246332Y208666D01*
X231000Y208999D02*
X231666D01*
X231333D01*
Y207000D01*
X231000D01*
X231666D01*
X233666Y208999D02*
X232999D01*
X232666Y208666D01*
Y207333D01*
X232999Y207000D01*
X233666D01*
X233999Y207333D01*
Y208666D01*
X233666Y208999D01*
X234665Y207000D02*
X235332D01*
X234999D01*
Y208999D01*
X234665Y208666D01*
X236332D02*
X236665Y208999D01*
X237331D01*
X237665Y208666D01*
Y208333D01*
X237331Y208000D01*
X236998D01*
X237331D01*
X237665Y207666D01*
Y207333D01*
X237331Y207000D01*
X236665D01*
X236332Y207333D01*
X222333Y208666D02*
X222000Y208999D01*
X221333D01*
X221000Y208666D01*
Y207333D01*
X221333Y207000D01*
X222000D01*
X222333Y207333D01*
Y208000D01*
X221666D01*
X222999Y207000D02*
Y208999D01*
X224332Y207000D01*
Y208999D01*
X224999D02*
Y207000D01*
X225998D01*
X226332Y207333D01*
Y208666D01*
X225998Y208999D01*
X224999D01*
X211000Y207000D02*
Y208333D01*
X211666Y208999D01*
X212333Y208333D01*
Y207000D01*
Y208000D01*
X211000D01*
X212999Y207000D02*
Y208999D01*
X213999D01*
X214332Y208666D01*
Y208000D01*
X213999Y207666D01*
X212999D01*
X213666D02*
X214332Y207000D01*
X216332Y208999D02*
X214999D01*
Y207000D01*
X216332D01*
X214999Y208000D02*
X215665D01*
X218331Y208999D02*
X216998D01*
Y208000D01*
X217665D01*
X216998D01*
Y207000D01*
D62*
X386173Y77264D02*
X390406D01*
X386173Y47736D02*
X390406D01*
X371016D02*
X378988D01*
X371016Y77264D02*
X378988D01*
D63*
X353744Y61906D02*
X359256D01*
X353744Y50095D02*
X359256D01*
X194000Y175500D02*
X214000D01*
Y185500D01*
X194000D02*
X214000D01*
X194000Y175500D02*
Y185500D01*
D64*
X330894Y24819D02*
Y27181D01*
X329713Y26000D02*
X330894Y27181D01*
X329713Y26000D02*
X330894Y24819D01*
D65*
X223847Y40722D02*
X223866Y40741D01*
X223847Y40760D01*
X223829Y40741D01*
X223847Y40722D01*
Y54722D02*
X223866Y54741D01*
X223847Y54760D01*
X223829Y54741D01*
X223847Y54722D01*
D66*
X217500Y145000D02*
Y148999D01*
X218833Y147666D01*
X220166Y148999D01*
Y145000D01*
X221499D02*
Y147666D01*
X222832Y148999D01*
X224165Y147666D01*
Y145000D01*
Y146999D01*
X221499D01*
X220166Y155999D02*
X217500D01*
Y152000D01*
X220166D01*
X217500Y153999D02*
X218833D01*
X221499Y155999D02*
Y153333D01*
X222832Y152000D01*
X224165Y153333D01*
Y155999D01*
X225497D02*
X228163D01*
X226830D01*
Y152000D01*
X229496D02*
X230829D01*
X230163D01*
Y155999D01*
X229496Y155332D01*
X220166Y161999D02*
X217500D01*
Y158000D01*
X220166D01*
X217500Y159999D02*
X218833D01*
X221499Y161999D02*
Y159333D01*
X222832Y158000D01*
X224165Y159333D01*
Y161999D01*
X225497D02*
X228163D01*
X226830D01*
Y158000D01*
X232162D02*
X229496D01*
X232162Y160666D01*
Y161332D01*
X231495Y161999D01*
X230163D01*
X229496Y161332D01*
X220166Y167999D02*
X217500D01*
Y164000D01*
X220166D01*
X217500Y165999D02*
X218833D01*
X221499Y167999D02*
Y165333D01*
X222832Y164000D01*
X224165Y165333D01*
Y167999D01*
X225497D02*
X228163D01*
X226830D01*
Y164000D01*
X229496Y167332D02*
X230163Y167999D01*
X231495D01*
X232162Y167332D01*
Y166666D01*
X231495Y165999D01*
X230829D01*
X231495D01*
X232162Y165333D01*
Y164666D01*
X231495Y164000D01*
X230163D01*
X229496Y164666D01*
X220166Y173999D02*
X217500D01*
Y170000D01*
X220166D01*
X217500Y171999D02*
X218833D01*
X221499Y173999D02*
Y171333D01*
X222832Y170000D01*
X224165Y171333D01*
Y173999D01*
X225497D02*
X228163D01*
X226830D01*
Y170000D01*
X231495D02*
Y173999D01*
X229496Y171999D01*
X232162D01*
X217500Y182499D02*
Y178500D01*
X219499D01*
X220166Y179166D01*
Y179833D01*
X219499Y180499D01*
X217500D01*
X219499D01*
X220166Y181166D01*
Y181832D01*
X219499Y182499D01*
X217500D01*
X223498D02*
X222165D01*
X221499Y181832D01*
Y179166D01*
X222165Y178500D01*
X223498D01*
X224165Y179166D01*
Y181832D01*
X223498Y182499D01*
X227497D02*
X226164D01*
X225497Y181832D01*
Y179166D01*
X226164Y178500D01*
X227497D01*
X228163Y179166D01*
Y181832D01*
X227497Y182499D01*
X229496D02*
X232162D01*
X230829D01*
Y178500D01*
X2000Y123499D02*
X3333D01*
X2667D01*
Y119500D01*
X2000D01*
X3333D01*
X7332Y123499D02*
X5999D01*
X5332Y122832D01*
Y120167D01*
X5999Y119500D01*
X7332D01*
X7998Y120167D01*
Y122832D01*
X7332Y123499D01*
X9331Y119500D02*
X10664D01*
X9997D01*
Y123499D01*
X9331Y122832D01*
X2000Y117499D02*
X3333D01*
X2667D01*
Y113500D01*
X2000D01*
X3333D01*
X7332Y117499D02*
X5999D01*
X5332Y116832D01*
Y114166D01*
X5999Y113500D01*
X7332D01*
X7998Y114166D01*
Y116832D01*
X7332Y117499D01*
X11997Y113500D02*
X9331D01*
X11997Y116166D01*
Y116832D01*
X11330Y117499D01*
X9997D01*
X9331Y116832D01*
X2000Y111499D02*
X3333D01*
X2667D01*
Y107500D01*
X2000D01*
X3333D01*
X7332Y111499D02*
X5999D01*
X5332Y110832D01*
Y108167D01*
X5999Y107500D01*
X7332D01*
X7998Y108167D01*
Y110832D01*
X7332Y111499D01*
X9331Y110832D02*
X9997Y111499D01*
X11330D01*
X11997Y110832D01*
Y110166D01*
X11330Y109499D01*
X10664D01*
X11330D01*
X11997Y108833D01*
Y108167D01*
X11330Y107500D01*
X9997D01*
X9331Y108167D01*
D67*
X389717Y62500D02*
D03*
M02*
